<svg xmlns="http://www.w3.org/2000/svg" width="692" height="692" viewBox="0 0 692 692">
<g>
<path d="M 0.00 0.00 L 692.00 0.00 L 692.00 692.00 L 0.00 692.00 ZM 329.50 596.91 C341.13,598.11 371.06,598.14 381.50,596.98 C419.75,592.70 458.14,578.66 490.76,557.01 C497.22,552.73 505.20,546.93 508.50,544.13 C511.80,541.33 517.59,536.45 521.36,533.27 C528.70,527.09 542.28,512.59 550.63,502.00 C579.78,465.05 598.37,418.61 602.99,371.14 C603.55,365.45 604.00,360.37 604.00,359.86 C604.00,359.29 575.54,359.06 530.75,359.28 C471.07,359.57 456.67,359.89 453.00,361.05 C450.52,361.83 448.27,362.70 448.00,362.98 C446.50,364.54 438.01,370.00 437.10,370.00 C436.51,370.00 434.84,371.80 433.38,374.00 C431.93,376.20 430.34,378.00 429.87,378.00 C429.39,378.00 429.00,378.67 429.00,379.50 C429.00,380.33 428.63,381.00 428.18,381.00 C427.00,381.00 422.92,388.58 423.69,389.35 C424.04,389.71 423.78,390.00 423.11,390.00 C422.43,390.00 422.14,390.41 422.45,390.91 C422.76,391.42 422.63,391.98 422.17,392.16 C421.70,392.35 418.76,397.67 415.62,404.00 C404.38,426.65 384.87,450.25 369.16,460.20 C367.42,461.30 366.00,462.60 366.00,463.10 C366.00,463.59 365.39,464.00 364.64,464.00 C363.89,464.00 362.20,465.04 360.89,466.32 C359.57,467.59 357.04,469.22 355.25,469.94 C353.46,470.66 352.00,471.54 352.00,471.91 C352.00,473.43 334.46,481.33 328.75,482.39 C326.69,482.78 325.00,483.44 325.00,483.86 C325.00,484.92 315.09,487.39 311.75,487.16 C310.24,487.05 309.00,487.38 309.00,487.88 C309.00,490.56 278.34,491.68 258.98,489.71 C251.88,488.98 243.00,486.78 243.00,485.73 C243.00,485.21 242.35,485.04 241.56,485.34 C239.84,486.00 227.00,482.07 227.00,480.88 C227.00,480.43 226.32,480.32 225.50,480.64 C224.68,480.95 224.00,480.69 224.00,480.05 C224.00,479.41 223.55,479.16 223.00,479.50 C222.45,479.84 222.00,479.61 222.00,479.00 C222.00,478.39 221.55,478.16 221.00,478.50 C220.45,478.84 220.00,478.66 220.00,478.09 C220.00,477.53 219.32,477.32 218.50,477.64 C217.68,477.95 217.00,477.69 217.00,477.05 C217.00,476.41 216.55,476.16 216.00,476.50 C215.45,476.84 215.00,476.61 215.00,476.00 C215.00,475.39 214.55,475.16 214.00,475.50 C213.45,475.84 213.00,475.61 213.00,475.00 C213.00,474.39 212.55,474.16 212.00,474.50 C211.45,474.84 211.00,474.61 211.00,474.00 C211.00,473.39 210.57,473.15 210.04,473.48 C209.51,473.80 208.19,473.19 207.12,472.12 C206.05,471.05 204.90,470.43 204.58,470.75 C204.26,471.07 204.00,470.78 204.00,470.11 C204.00,469.43 203.60,469.13 203.10,469.44 C202.61,469.74 201.94,469.29 201.61,468.43 C201.28,467.57 200.56,467.15 200.01,467.50 C199.45,467.84 199.00,467.61 199.00,467.00 C199.00,466.39 198.57,466.15 198.05,466.47 C197.53,466.79 196.61,466.13 196.00,465.00 C195.39,463.87 194.52,463.18 194.05,463.47 C193.59,463.75 192.94,463.29 192.61,462.43 C192.28,461.57 191.56,461.16 191.00,461.50 C190.44,461.84 189.72,461.43 189.39,460.57 C189.06,459.71 188.42,459.24 187.97,459.52 C187.52,459.80 186.19,458.68 185.02,457.03 C183.85,455.38 182.53,454.14 182.09,454.27 C180.95,454.60 163.35,436.22 158.00,429.10 C155.52,425.81 153.16,423.09 152.75,423.06 C152.34,423.03 152.00,422.51 152.00,421.90 C152.00,420.81 145.09,408.96 143.89,408.00 C142.91,407.21 139.00,399.20 139.00,397.98 C139.00,397.37 137.94,394.54 136.64,391.69 C129.54,376.09 126.58,359.23 126.60,334.50 C126.62,310.51 129.32,293.34 136.18,273.50 C141.02,259.52 151.91,238.26 160.25,226.52 C167.25,216.67 189.43,195.17 199.37,188.62 C225.63,171.30 253.35,163.02 285.12,163.01 C301.07,163.00 312.22,164.70 327.50,169.47 C380.84,186.13 422.52,235.65 433.14,295.00 C434.97,305.19 435.36,310.86 435.26,325.74 L 435.14 343.98 L 438.05 342.47 C439.65,341.65 443.33,340.36 446.23,339.62 L 451.50 338.26 L 451.43 320.38 C451.36,299.98 449.49,287.75 443.46,268.12 C439.00,253.58 427.13,229.47 418.54,217.50 C403.42,196.43 382.13,177.25 360.50,165.21 L 354.50 161.87 L 367.00 162.51 C402.80,164.33 427.83,175.38 451.02,199.60 C467.95,217.28 479.13,238.40 485.92,265.51 C490.47,283.73 491.43,292.58 491.47,316.79 L 491.50 340.07 L 499.50 339.79 L 507.50 339.50 L 508.29 330.50 C509.93,311.69 507.19,281.64 502.01,261.55 C486.54,201.55 445.83,159.42 392.86,148.59 C379.16,145.79 363.24,145.14 317.00,145.48 C269.55,145.83 262.57,146.32 243.15,150.63 C236.92,152.01 231.61,152.94 231.36,152.69 C230.50,151.83 245.56,142.79 257.50,137.01 C288.01,122.21 316.67,115.61 350.50,115.58 C371.96,115.56 382.48,116.77 401.37,121.45 C449.84,133.44 494.56,165.88 520.04,207.50 C539.71,239.63 549.76,281.73 546.99,320.39 C546.43,328.15 545.87,335.62 545.74,337.00 C545.50,339.46 545.63,339.50 553.68,339.79 L 561.87 340.08 L 562.68 335.29 C564.25,326.09 563.55,284.40 561.64,273.50 C559.47,261.08 554.02,241.04 550.00,230.64 C535.37,192.78 506.22,157.19 470.50,133.57 C447.12,118.11 417.04,106.03 390.70,101.53 C323.80,90.10 258.57,106.92 203.00,149.92 C191.77,158.61 170.20,180.13 160.82,192.00 C152.34,202.73 145.00,213.37 145.00,214.95 C145.00,215.53 144.56,216.00 144.02,216.00 C143.48,216.00 142.76,217.12 142.41,218.50 C142.07,219.88 141.36,221.00 140.83,221.00 C140.31,221.00 140.16,221.45 140.50,222.00 C140.84,222.55 140.71,223.00 140.21,223.00 C139.71,223.00 138.46,224.91 137.43,227.25 C136.40,229.59 135.26,231.73 134.90,232.00 C134.54,232.27 131.69,238.08 128.57,244.91 C118.45,267.07 111.87,290.26 108.39,316.05 C105.97,333.99 105.95,366.91 108.34,382.00 C115.90,429.69 133.31,469.56 162.04,505.00 C177.40,523.96 202.18,546.18 222.50,559.24 C253.20,578.96 293.77,593.24 329.50,596.91 ZM 265.60 464.86 C275.16,466.09 291.76,466.20 292.47,465.04 C292.80,464.52 293.70,464.33 294.47,464.63 C298.46,466.16 321.63,459.22 334.96,452.51 C394.48,422.53 424.57,347.28 403.45,281.28 C400.00,270.50 389.08,248.90 382.84,240.50 C375.52,230.64 361.72,217.40 351.87,210.78 C329.24,195.59 307.99,189.01 281.50,189.01 C248.25,189.00 221.54,200.36 194.81,225.85 C189.96,230.47 186.00,234.64 186.00,235.12 C186.00,235.61 185.21,236.85 184.25,237.88 C181.12,241.25 179.00,244.38 179.00,245.65 C179.00,246.33 178.21,247.48 177.25,248.21 C175.34,249.65 174.81,250.43 169.35,259.89 C167.33,263.41 165.67,266.90 165.67,267.64 C165.67,268.39 165.35,269.00 164.97,269.00 C164.26,269.00 159.56,281.10 156.62,290.50 C151.01,308.37 149.79,339.49 153.89,360.00 C157.80,379.54 165.86,398.05 176.96,413.00 C182.67,420.69 196.24,434.21 204.15,440.10 C221.17,452.76 244.48,462.15 265.60,464.86 ZM 299.00 447.54 C291.50,448.48 266.03,448.86 265.52,448.04 C265.26,447.62 263.19,447.27 260.92,447.27 C258.65,447.27 256.50,446.87 256.14,446.39 C255.79,445.90 254.02,445.40 252.21,445.29 C248.38,445.04 231.66,438.44 231.16,436.98 C230.98,436.43 230.42,436.24 229.91,436.55 C229.41,436.86 229.00,436.64 229.00,436.06 C229.00,435.48 228.66,435.09 228.25,435.21 C226.98,435.55 221.00,432.01 221.00,430.92 C221.00,430.35 220.55,430.16 219.99,430.50 C219.44,430.85 218.72,430.43 218.39,429.57 C218.06,428.71 217.41,428.25 216.95,428.53 C216.48,428.82 215.61,428.13 215.00,427.00 C214.39,425.87 213.49,425.20 212.99,425.50 C212.50,425.81 211.34,424.93 210.43,423.54 C209.53,422.15 208.46,421.22 208.06,421.46 C207.66,421.71 204.79,419.12 201.67,415.71 C192.92,406.10 192.00,405.00 192.00,404.01 C192.00,403.51 191.44,402.74 190.75,402.30 C189.09,401.24 185.00,395.36 185.00,394.04 C185.00,393.47 184.63,393.00 184.18,393.00 C183.73,393.00 182.44,390.86 181.31,388.25 C171.19,364.76 169.01,355.82 168.30,335.00 C167.05,298.41 179.77,265.51 205.07,239.90 C221.13,223.64 236.50,214.39 256.82,208.75 C263.28,206.96 267.28,206.62 282.00,206.59 C296.96,206.56 300.67,206.88 307.57,208.75 C327.71,214.24 344.44,224.15 359.83,239.73 C364.96,244.93 368.93,249.40 368.65,249.68 C368.38,249.95 365.53,248.40 362.33,246.22 C349.90,237.79 335.33,231.64 319.95,228.32 C309.71,226.12 286.59,225.89 277.50,227.90 C262.12,231.31 249.95,236.70 237.00,245.82 C229.36,251.21 219.00,260.80 219.00,262.49 C219.00,263.14 217.66,264.98 216.03,266.58 C214.39,268.19 213.04,270.06 213.03,270.75 C213.01,271.44 212.55,272.00 212.00,272.00 C211.45,272.00 211.00,272.67 211.00,273.50 C211.00,274.33 210.58,275.00 210.07,275.00 C209.55,275.00 208.82,275.99 208.44,277.20 C208.05,278.42 207.17,279.97 206.48,280.67 C205.78,281.36 203.75,285.43 201.96,289.71 C190.29,317.60 190.87,348.66 203.55,374.55 C207.50,382.62 209.60,385.40 218.82,394.77 C230.59,406.74 235.46,410.42 246.26,415.54 C258.10,421.15 267.68,423.24 281.50,423.24 C295.75,423.24 305.24,421.07 317.50,414.99 C326.07,410.75 339.11,400.08 344.64,392.79 C346.43,390.43 348.80,387.32 349.92,385.88 C351.03,384.43 353.95,379.14 356.39,374.11 C368.21,349.83 367.79,322.53 355.28,301.01 C349.95,291.85 338.15,280.31 329.50,275.82 C318.36,270.03 312.15,268.56 299.00,268.61 C289.14,268.65 286.36,269.04 279.54,271.39 C259.27,278.36 242.68,296.16 237.52,316.46 C235.56,324.13 235.57,338.94 237.53,346.47 C242.11,364.02 257.73,378.08 276.20,381.24 C292.41,384.02 309.63,374.45 317.20,358.47 C320.26,352.01 320.50,350.77 320.47,341.50 C320.44,329.77 318.61,324.61 312.22,318.22 C304.82,310.82 294.71,310.09 288.31,316.49 C284.44,320.36 284.12,321.99 287.25,322.02 C291.99,322.07 297.91,325.78 301.06,330.70 C303.85,335.05 304.11,336.12 303.80,342.12 C302.98,357.60 289.86,367.50 275.31,363.60 C272.46,362.84 269.87,362.46 269.56,362.77 C269.25,363.08 269.00,362.84 269.00,362.23 C269.00,361.63 268.06,360.84 266.92,360.47 C263.66,359.44 258.96,354.02 256.11,348.00 C253.78,343.09 253.50,341.33 253.54,331.50 C253.57,322.45 253.98,319.48 255.86,314.75 C260.67,302.65 272.62,291.69 285.17,287.88 C290.85,286.16 293.93,285.85 302.30,286.20 C311.05,286.57 313.45,287.07 319.14,289.71 C327.65,293.64 338.60,304.21 342.24,312.00 C349.06,326.56 349.95,339.97 345.16,356.00 C342.12,366.18 340.79,369.09 336.40,375.25 C332.40,380.84 322.40,392.00 321.38,392.00 C321.10,392.00 319.40,393.12 317.61,394.48 C313.21,397.84 300.43,403.66 295.50,404.54 C293.30,404.94 291.06,405.52 290.52,405.83 C288.95,406.74 271.87,406.60 271.30,405.67 C271.01,405.21 269.71,405.11 268.39,405.44 C266.97,405.80 266.00,405.60 266.00,404.95 C266.00,404.32 265.16,404.13 264.00,404.50 C262.77,404.89 262.00,404.68 262.00,403.96 C262.00,403.31 261.35,403.03 260.56,403.34 C259.78,403.64 258.99,403.49 258.81,403.00 C258.64,402.52 257.38,401.91 256.00,401.66 C252.48,401.02 248.00,398.85 248.00,397.78 C248.00,397.29 247.55,397.16 247.00,397.50 C246.45,397.84 246.00,397.69 246.00,397.17 C246.00,396.64 244.88,395.93 243.50,395.59 C242.12,395.24 241.00,394.53 241.00,394.01 C241.00,393.49 239.94,392.49 238.66,391.78 C234.01,389.24 223.35,376.05 219.24,367.75 C208.81,346.69 207.71,320.38 216.36,298.97 C222.83,282.93 235.85,266.84 249.71,257.74 C265.77,247.20 278.62,243.61 300.00,243.69 C316.45,243.76 324.06,245.32 337.26,251.35 C369.47,266.06 390.59,297.72 391.31,332.35 C391.49,341.13 389.96,357.50 388.96,357.50 C388.84,357.50 388.62,358.40 388.47,359.50 C388.31,360.60 387.27,364.09 386.15,367.25 C385.03,370.41 384.32,373.00 384.58,373.00 C384.83,373.00 384.32,374.10 383.44,375.45 C382.56,376.79 381.91,378.16 382.01,378.49 C382.23,379.29 375.79,392.12 374.41,393.63 C373.82,394.28 371.79,397.22 369.91,400.15 C368.04,403.08 365.83,406.21 365.00,407.10 C364.17,407.99 361.05,411.36 358.07,414.60 C355.08,417.84 350.80,421.81 348.57,423.43 C346.33,425.04 343.91,426.96 343.18,427.68 C342.45,428.41 341.52,429.00 341.12,429.00 C340.71,429.00 339.50,429.80 338.44,430.79 C337.37,431.77 335.04,433.17 333.25,433.91 C331.46,434.64 330.00,435.60 330.00,436.04 C330.00,436.48 327.75,437.59 325.00,438.50 C322.25,439.41 320.00,440.56 320.00,441.05 C320.00,441.54 319.38,441.70 318.63,441.41 C317.87,441.12 316.64,441.47 315.88,442.19 C315.12,442.91 313.43,443.62 312.13,443.76 C310.83,443.90 308.35,444.68 306.63,445.50 C304.91,446.31 301.48,447.23 299.00,447.54 ZM 358.00 577.93 C358.00,578.81 353.50,579.05 340.50,578.85 C330.88,578.70 323.00,578.21 323.00,577.75 C323.00,577.29 321.42,577.20 319.50,577.57 C317.58,577.93 316.00,577.84 316.00,577.36 C316.00,576.89 313.87,576.42 311.27,576.32 C308.67,576.22 306.39,575.66 306.19,575.07 C305.99,574.47 304.77,574.27 303.42,574.61 C301.98,574.97 301.00,574.78 301.00,574.14 C301.00,573.55 300.33,573.32 299.50,573.64 C298.67,573.95 298.00,573.80 298.00,573.31 C298.00,572.81 296.33,572.35 294.28,572.29 C292.24,572.23 290.41,571.72 290.22,571.15 C290.03,570.58 289.22,570.36 288.44,570.66 C287.65,570.97 287.00,570.73 287.00,570.14 C287.00,569.55 286.33,569.32 285.50,569.64 C284.67,569.95 284.00,569.73 284.00,569.14 C284.00,568.55 283.33,568.32 282.50,568.64 C281.67,568.95 281.00,568.73 281.00,568.14 C281.00,567.55 280.33,567.32 279.50,567.64 C278.67,567.95 278.00,567.69 278.00,567.05 C278.00,566.41 277.55,566.16 277.00,566.50 C276.45,566.84 276.00,566.66 276.00,566.09 C276.00,565.53 275.33,565.32 274.50,565.64 C273.67,565.95 273.00,565.73 273.00,565.14 C273.00,564.55 272.33,564.32 271.50,564.64 C270.67,564.95 270.00,564.69 270.00,564.05 C270.00,563.41 269.55,563.16 269.00,563.50 C268.45,563.84 268.00,563.61 268.00,563.00 C268.00,562.39 267.55,562.16 267.00,562.50 C266.45,562.84 266.00,562.57 266.00,561.89 C266.00,561.22 265.74,560.93 265.41,561.25 C264.58,562.09 259.00,559.99 259.00,558.84 C259.00,558.31 258.55,558.16 258.00,558.50 C257.45,558.84 257.00,558.61 257.00,558.00 C257.00,557.39 256.55,557.16 256.00,557.50 C255.45,557.84 255.00,557.61 255.00,557.00 C255.00,556.39 254.55,556.16 254.00,556.50 C253.45,556.84 253.00,556.61 253.00,556.00 C253.00,555.39 252.55,555.16 252.00,555.50 C251.45,555.84 251.00,555.61 251.00,555.00 C251.00,554.39 250.55,554.16 250.00,554.50 C249.45,554.84 249.00,554.61 249.00,554.00 C249.00,553.39 248.55,553.16 248.00,553.50 C247.45,553.84 247.00,553.61 247.00,553.00 C247.00,552.39 246.57,552.15 246.04,552.48 C245.51,552.80 244.19,552.19 243.12,551.12 C242.05,550.05 240.90,549.43 240.58,549.75 C240.26,550.07 240.00,549.78 240.00,549.11 C240.00,548.43 239.55,548.16 239.00,548.50 C238.45,548.84 238.00,548.64 238.00,548.06 C238.00,547.48 237.56,547.00 237.01,547.00 C236.47,547.00 235.23,546.32 234.26,545.49 C233.29,544.66 232.27,544.07 232.00,544.18 C231.73,544.28 230.21,543.17 228.62,541.70 C227.04,540.24 225.35,539.28 224.87,539.58 C224.38,539.88 223.72,539.42 223.39,538.56 C223.06,537.70 222.21,537.00 221.50,537.00 C220.79,537.00 219.94,536.30 219.61,535.44 C219.28,534.58 218.58,534.14 218.06,534.46 C217.53,534.79 216.61,534.14 216.01,533.03 C215.42,531.91 214.38,531.00 213.71,531.00 C213.03,531.00 211.91,530.08 211.21,528.96 C210.51,527.84 209.53,527.17 209.04,527.47 C208.55,527.78 207.19,526.68 206.02,525.03 C204.85,523.38 203.58,522.13 203.19,522.25 C202.55,522.45 184.63,504.38 177.38,496.24 C171.49,489.61 171.00,489.00 171.00,488.24 C171.00,487.82 169.88,486.27 168.50,484.78 C167.12,483.30 166.00,481.84 166.00,481.53 C166.00,481.23 163.59,477.27 160.65,472.74 C157.70,468.21 154.47,463.15 153.46,461.50 C151.40,458.14 140.00,435.17 140.00,434.39 C140.00,434.11 142.71,437.24 146.01,441.36 C155.00,452.53 173.77,469.95 184.77,477.33 C209.89,494.20 232.72,502.80 262.40,506.59 C312.29,512.96 367.20,492.05 401.20,453.73 C415.24,437.92 424.00,424.81 434.45,404.00 C442.23,388.49 444.62,385.01 450.29,380.91 C458.43,375.01 459.03,374.96 521.20,375.24 L 577.83 375.50 L 572.32 381.50 C569.29,384.80 566.07,388.62 565.18,390.00 C564.28,391.38 562.97,392.86 562.27,393.30 C561.57,393.74 561.00,394.56 561.00,395.12 C561.00,395.68 560.33,396.81 559.52,397.62 C558.71,398.43 557.69,399.73 557.26,400.50 C556.62,401.64 549.41,402.01 517.65,402.51 C496.29,402.85 478.07,403.41 477.16,403.76 C473.85,405.01 470.17,409.76 466.69,417.29 C461.44,428.65 453.41,442.54 447.35,450.74 C444.41,454.72 442.00,458.19 442.00,458.44 C442.00,460.57 412.34,489.99 410.19,490.00 C409.81,490.01 408.14,491.29 406.47,492.85 C404.80,494.41 401.20,496.92 398.47,498.42 C395.74,499.92 393.05,501.73 392.50,502.43 C391.94,503.13 390.54,504.01 389.37,504.38 C388.20,504.75 385.95,506.17 384.37,507.53 C382.79,508.89 380.71,510.00 379.75,510.00 C378.79,510.00 378.00,510.45 378.00,511.00 C378.00,511.55 377.13,512.00 376.07,512.00 C375.01,512.00 373.47,512.67 372.64,513.50 C371.82,514.33 370.24,515.00 369.14,515.00 C368.04,515.00 366.44,515.71 365.58,516.57 C363.61,518.53 342.12,525.74 339.75,525.23 C338.79,525.02 338.00,525.29 338.00,525.83 C338.00,526.37 337.10,526.58 336.00,526.29 C334.90,526.00 334.00,526.23 334.00,526.79 C334.00,527.35 333.10,527.58 332.00,527.29 C330.87,526.99 330.00,527.26 330.00,527.90 C330.00,528.61 329.07,528.80 327.50,528.41 C325.99,528.03 325.00,528.21 325.00,528.87 C325.00,529.54 323.84,529.72 321.90,529.33 C320.06,528.96 318.52,529.16 318.11,529.81 C317.71,530.46 310.68,531.41 301.12,532.11 C287.85,533.08 284.66,533.07 284.01,532.01 C283.41,531.05 281.63,530.90 277.10,531.41 C272.88,531.89 271.00,531.76 271.00,530.99 C271.00,530.24 269.54,530.10 266.50,530.55 C263.51,531.00 262.00,530.86 262.00,530.14 C262.00,529.46 260.86,529.28 259.00,529.65 C257.01,530.05 256.00,529.85 256.00,529.06 C256.00,528.32 255.24,528.11 254.00,528.50 C252.84,528.87 252.00,528.68 252.00,528.05 C252.00,527.39 251.02,527.21 249.50,527.59 C248.12,527.93 247.00,527.83 247.00,527.36 C247.00,526.89 245.31,526.39 243.25,526.25 C238.03,525.91 240.41,527.27 251.50,530.96 C290.72,544.01 328.62,544.15 366.76,531.39 C384.18,525.56 408.58,512.09 423.45,500.09 C445.93,481.94 468.49,452.83 480.81,426.05 L 484.50 418.03 L 516.36 418.01 C546.32,418.00 548.17,418.10 547.45,419.75 C544.69,426.08 539.61,441.79 538.04,448.81 C537.02,453.40 536.01,457.32 535.80,457.54 C535.58,457.75 527.33,457.96 517.46,458.01 C500.44,458.09 499.23,458.23 494.29,460.61 C487.12,464.05 482.06,470.21 474.28,484.94 C463.24,505.84 455.99,516.51 444.14,529.25 C441.71,531.86 440.09,534.00 440.54,534.00 C440.98,534.00 440.29,535.12 439.00,536.50 C437.71,537.88 436.10,539.00 435.43,539.00 C434.76,539.00 432.82,540.58 431.13,542.50 C429.44,544.42 427.60,546.00 427.04,546.00 C426.48,546.00 425.45,546.90 424.77,548.00 C424.08,549.10 422.94,550.00 422.23,550.00 C421.52,550.00 420.68,550.67 420.36,551.50 C420.05,552.33 419.18,553.00 418.44,553.00 C417.70,553.00 416.74,553.56 416.30,554.25 C415.86,554.94 413.73,556.40 411.57,557.50 C409.41,558.60 407.16,559.95 406.57,560.50 C405.98,561.05 402.24,563.05 398.25,564.94 C394.26,566.84 391.00,568.74 391.00,569.16 C391.00,569.59 390.38,569.70 389.63,569.41 C388.87,569.12 387.62,569.52 386.85,570.29 C385.05,572.10 378.16,574.41 375.25,574.19 C374.01,574.10 373.00,574.45 373.00,574.98 C373.00,575.51 372.33,575.68 371.50,575.36 C370.67,575.05 370.00,575.29 370.00,575.91 C370.00,576.61 369.06,576.80 367.50,576.41 C366.03,576.04 365.00,576.21 365.00,576.83 C365.00,577.47 363.63,577.65 361.50,577.31 C359.14,576.92 358.00,577.13 358.00,577.93 ZM 422.00 570.64 C422.00,571.11 420.88,571.50 419.50,571.50 C418.12,571.50 417.00,571.43 417.00,571.35 C417.00,571.26 418.91,570.07 421.25,568.70 C439.79,557.82 469.07,528.91 475.22,515.42 C475.92,513.88 477.33,511.68 478.34,510.54 C479.36,509.40 483.66,501.96 487.90,493.99 C494.07,482.42 496.41,478.96 499.56,476.78 L 503.50 474.05 L 526.15 473.78 C528.62,473.75 530.84,473.71 532.82,473.67 C542.46,473.50 546.69,473.43 547.36,474.93 C547.88,476.11 546.21,478.26 543.22,482.10 C542.43,483.11 541.55,484.24 540.60,485.49 C530.81,498.42 524.16,505.97 516.08,513.33 C511.91,517.14 507.13,521.77 505.46,523.62 C503.78,525.48 501.89,527.00 501.24,527.00 C500.60,527.00 499.59,527.90 499.00,529.00 C498.41,530.10 497.29,531.00 496.50,531.00 C495.71,531.00 494.63,531.81 494.10,532.81 C493.57,533.80 491.06,535.69 488.51,536.99 C485.97,538.30 482.81,540.38 481.48,541.61 C480.15,542.84 478.15,544.14 477.03,544.49 C475.91,544.84 475.00,545.55 475.00,546.07 C475.00,546.58 474.32,547.00 473.49,547.00 C472.66,547.00 471.21,547.90 470.27,549.00 C469.33,550.10 467.96,551.00 467.23,551.00 C465.31,551.00 459.63,554.05 458.75,555.55 C458.33,556.26 455.86,557.60 453.25,558.53 C443.61,561.98 436.00,565.32 436.00,566.12 C436.00,566.57 435.33,566.68 434.50,566.36 C433.67,566.05 433.00,566.27 433.00,566.86 C433.00,567.45 432.38,567.70 431.63,567.41 C430.87,567.12 429.63,567.51 428.87,568.27 C428.11,569.04 426.92,569.47 426.24,569.25 C425.56,569.02 425.00,569.31 425.00,569.89 C425.00,570.46 424.33,570.68 423.50,570.36 C422.67,570.05 422.00,570.17 422.00,570.64 ZM 560.00 456.00 C557.77,457.44 555.01,457.20 554.37,455.51 C553.00,451.94 559.64,430.68 566.25,417.50 C570.99,408.05 579.20,396.00 580.89,396.00 C581.57,396.00 581.59,399.59 580.93,401.00 C580.80,401.27 580.61,401.95 580.52,402.50 C580.42,403.05 579.88,404.62 579.32,406.00 C578.76,407.38 576.39,414.40 574.06,421.62 C571.73,428.83 567.64,439.29 564.97,444.87 C562.30,450.44 560.42,455.01 560.81,455.02 C561.19,455.02 560.83,455.47 560.00,456.00 Z" fill="rgb(25,30,32)"/>
<path d="M 329.50 596.91 C293.77,593.24 253.20,578.96 222.50,559.24 C202.18,546.18 177.40,523.96 162.04,505.00 C133.31,469.56 115.90,429.69 108.34,382.00 C107.17,374.60 106.57,362.91 106.56,350.80 C106.63,350.93 106.70,351.00 106.78,351.00 C107.96,351.00 109.00,348.62 109.00,345.92 C109.00,343.38 111.04,343.45 111.71,346.01 C112.44,348.78 116.17,349.48 119.89,347.56 L 123.00 345.95 L 123.07 348.72 C123.13,351.12 123.25,351.23 123.92,349.50 C124.50,348.03 124.89,349.10 125.40,353.50 C125.79,356.80 126.59,362.09 127.18,365.25 C127.77,368.41 128.70,371.00 129.24,371.00 C129.46,371.00 129.63,370.82 129.72,370.53 C131.33,378.15 133.61,385.03 136.64,391.69 C137.94,394.54 139.00,397.37 139.00,397.98 C139.00,399.20 142.91,407.21 143.89,408.00 C145.09,408.96 152.00,420.81 152.00,421.90 C152.00,422.51 152.34,423.03 152.75,423.06 C153.16,423.09 155.52,425.81 158.00,429.10 C163.35,436.22 180.95,454.60 182.09,454.27 C182.53,454.14 183.85,455.38 185.02,457.03 C186.19,458.68 187.52,459.80 187.97,459.52 C188.42,459.24 189.06,459.71 189.39,460.57 C189.72,461.43 190.44,461.84 191.00,461.50 C191.56,461.16 192.28,461.57 192.61,462.43 C192.94,463.29 193.59,463.75 194.05,463.47 C194.52,463.18 195.39,463.87 196.00,465.00 C196.61,466.13 197.53,466.79 198.05,466.47 C198.57,466.15 199.00,466.39 199.00,467.00 C199.00,467.61 199.45,467.84 200.01,467.50 C200.56,467.15 201.28,467.57 201.61,468.43 C201.94,469.29 202.61,469.74 203.10,469.44 C203.60,469.13 204.00,469.43 204.00,470.11 C204.00,470.78 204.26,471.07 204.58,470.75 C204.90,470.43 206.05,471.05 207.12,472.12 C208.19,473.19 209.51,473.80 210.04,473.48 C210.57,473.15 211.00,473.39 211.00,474.00 C211.00,474.61 211.45,474.84 212.00,474.50 C212.55,474.16 213.00,474.39 213.00,475.00 C213.00,475.61 213.45,475.84 214.00,475.50 C214.55,475.16 215.00,475.39 215.00,476.00 C215.00,476.61 215.45,476.84 216.00,476.50 C216.55,476.16 217.00,476.41 217.00,477.05 C217.00,477.69 217.68,477.95 218.50,477.64 C219.32,477.32 220.00,477.53 220.00,478.09 C220.00,478.66 220.45,478.84 221.00,478.50 C221.55,478.16 222.00,478.39 222.00,479.00 C222.00,479.61 222.45,479.84 223.00,479.50 C223.55,479.16 224.00,479.41 224.00,480.05 C224.00,480.69 224.68,480.95 225.50,480.64 C226.32,480.32 227.00,480.43 227.00,480.88 C227.00,482.07 239.84,486.00 241.56,485.34 C242.35,485.04 243.00,485.21 243.00,485.73 C243.00,486.75 251.42,488.87 258.41,489.65 C258.40,489.76 258.42,489.88 258.50,490.00 C258.84,490.55 260.02,491.00 261.12,491.00 C262.20,491.00 262.82,490.56 262.51,490.02 C281.84,491.54 309.00,490.40 309.00,487.88 C309.00,487.38 310.24,487.05 311.75,487.16 C315.09,487.39 325.00,484.92 325.00,483.86 C325.00,483.61 325.58,483.28 326.48,482.97 C325.63,483.32 325.00,483.74 325.00,484.11 C325.00,485.24 325.28,485.23 328.57,483.97 C330.06,483.41 331.04,482.71 330.76,482.42 C330.57,482.24 330.15,482.18 329.61,482.20 C335.57,480.73 349.70,474.40 351.75,472.32 C351.15,473.26 351.67,474.00 353.53,474.00 C354.89,474.00 356.00,474.47 356.00,475.04 C356.00,477.29 359.81,480.20 361.89,479.53 C363.03,479.17 364.76,479.34 365.73,479.91 C367.39,480.87 367.38,480.94 365.58,480.97 C364.53,480.99 363.96,481.29 364.32,481.65 C364.68,482.01 364.19,482.95 363.23,483.74 C362.28,484.53 363.75,483.94 366.50,482.43 C380.64,474.64 399.36,457.43 412.08,440.50 C415.21,436.33 417.79,432.77 420.11,429.33 C414.59,437.74 408.64,445.36 401.20,453.73 C367.20,492.05 312.29,512.96 262.40,506.59 C232.72,502.80 209.89,494.20 184.77,477.33 C173.77,469.95 155.00,452.53 146.01,441.36 C142.71,437.24 140.00,434.11 140.00,434.39 C140.00,435.17 151.40,458.14 153.46,461.50 C154.47,463.15 157.70,468.21 160.65,472.74 C163.59,477.27 166.00,481.23 166.00,481.53 C166.00,481.84 167.12,483.30 168.50,484.78 C169.88,486.27 171.00,487.82 171.00,488.24 C171.00,489.00 171.49,489.61 177.38,496.24 C184.63,504.38 202.55,522.45 203.19,522.25 C203.58,522.13 204.85,523.38 206.02,525.03 C207.19,526.68 208.55,527.78 209.04,527.47 C209.53,527.17 210.51,527.84 211.21,528.96 C211.91,530.08 213.03,531.00 213.71,531.00 C214.38,531.00 215.42,531.91 216.01,533.03 C216.61,534.14 217.53,534.79 218.06,534.46 C218.58,534.14 219.28,534.58 219.61,535.44 C219.94,536.30 220.79,537.00 221.50,537.00 C222.21,537.00 223.06,537.70 223.39,538.56 C223.72,539.42 224.38,539.88 224.87,539.58 C225.35,539.28 227.04,540.24 228.62,541.70 C230.21,543.17 231.73,544.28 232.00,544.18 C232.27,544.07 233.29,544.66 234.26,545.49 C235.23,546.32 236.47,547.00 237.01,547.00 C237.56,547.00 238.00,547.48 238.00,548.06 C238.00,548.64 238.45,548.84 239.00,548.50 C239.55,548.16 240.00,548.43 240.00,549.11 C240.00,549.78 240.26,550.07 240.58,549.75 C240.90,549.43 242.05,550.05 243.12,551.12 C244.19,552.19 245.51,552.80 246.04,552.48 C246.57,552.15 247.00,552.39 247.00,553.00 C247.00,553.61 247.45,553.84 248.00,553.50 C248.55,553.16 249.00,553.39 249.00,554.00 C249.00,554.61 249.45,554.84 250.00,554.50 C250.55,554.16 251.00,554.39 251.00,555.00 C251.00,555.61 251.45,555.84 252.00,555.50 C252.55,555.16 253.00,555.39 253.00,556.00 C253.00,556.61 253.45,556.84 254.00,556.50 C254.55,556.16 255.00,556.39 255.00,557.00 C255.00,557.61 255.45,557.84 256.00,557.50 C256.55,557.16 257.00,557.39 257.00,558.00 C257.00,558.61 257.45,558.84 258.00,558.50 C258.55,558.16 259.00,558.31 259.00,558.84 C259.00,559.99 264.58,562.09 265.41,561.25 C265.74,560.93 266.00,561.22 266.00,561.89 C266.00,562.57 266.45,562.84 267.00,562.50 C267.55,562.16 268.00,562.39 268.00,563.00 C268.00,563.61 268.45,563.84 269.00,563.50 C269.55,563.16 270.00,563.41 270.00,564.05 C270.00,564.69 270.67,564.95 271.50,564.64 C272.33,564.32 273.00,564.55 273.00,565.14 C273.00,565.73 273.67,565.95 274.50,565.64 C275.33,565.32 276.00,565.53 276.00,566.09 C276.00,566.66 276.45,566.84 277.00,566.50 C277.55,566.16 278.00,566.41 278.00,567.05 C278.00,567.69 278.67,567.95 279.50,567.64 C280.33,567.32 281.00,567.55 281.00,568.14 C281.00,568.73 281.67,568.95 282.50,568.64 C283.33,568.32 284.00,568.55 284.00,569.14 C284.00,569.73 284.67,569.95 285.50,569.64 C286.33,569.32 287.00,569.55 287.00,570.14 C287.00,570.73 287.65,570.97 288.44,570.66 C289.22,570.36 290.03,570.58 290.22,571.15 C290.41,571.72 292.24,572.23 294.28,572.29 C296.33,572.35 298.00,572.81 298.00,573.31 C298.00,573.80 298.67,573.95 299.50,573.64 C300.33,573.32 301.00,573.55 301.00,574.14 C301.00,574.78 301.98,574.97 303.42,574.61 C304.77,574.27 305.99,574.47 306.19,575.07 C306.39,575.66 308.67,576.22 311.27,576.32 C313.87,576.42 316.00,576.89 316.00,577.36 C316.00,577.84 317.58,577.93 319.50,577.57 C321.42,577.20 323.00,577.29 323.00,577.75 C323.00,577.97 324.76,578.19 327.63,578.38 C327.40,578.53 327.34,578.73 327.50,579.00 C327.84,579.55 330.00,579.96 332.31,579.90 C335.89,579.82 336.14,579.68 334.00,579.00 C333.58,578.87 333.17,578.75 332.76,578.65 C335.10,578.74 337.73,578.81 340.50,578.85 C353.50,579.05 358.00,578.81 358.00,577.93 C358.00,577.13 359.14,576.92 361.50,577.31 C363.63,577.65 365.00,577.47 365.00,576.83 C365.00,576.21 366.03,576.04 367.50,576.41 C369.06,576.80 370.00,576.61 370.00,575.91 C370.00,575.29 370.67,575.05 371.50,575.36 C372.33,575.68 373.00,575.51 373.00,574.98 C373.00,574.45 374.01,574.10 375.25,574.19 C378.16,574.41 385.05,572.10 386.85,570.29 C387.62,569.52 388.87,569.12 389.63,569.41 C390.38,569.70 391.00,569.59 391.00,569.16 C391.00,568.74 394.26,566.84 398.25,564.94 C402.24,563.05 405.98,561.05 406.57,560.50 C407.16,559.95 409.41,558.60 411.57,557.50 C413.73,556.40 415.86,554.94 416.30,554.25 C416.74,553.56 417.70,553.00 418.44,553.00 C419.18,553.00 420.05,552.33 420.36,551.50 C420.68,550.67 421.52,550.00 422.23,550.00 C422.94,550.00 424.08,549.10 424.77,548.00 C425.45,546.90 426.48,546.00 427.04,546.00 C427.60,546.00 429.44,544.42 431.13,542.50 C432.82,540.58 434.76,539.00 435.43,539.00 C436.10,539.00 437.71,537.88 439.00,536.50 C440.29,535.12 440.98,534.00 440.54,534.00 C440.09,534.00 441.71,531.86 444.14,529.25 C451.32,521.53 456.81,514.57 462.48,505.64 C458.24,512.47 454.31,518.02 450.55,522.50 C445.83,528.14 444.13,530.65 445.74,529.66 C446.32,529.30 449.16,526.10 452.05,522.54 C454.93,518.98 457.67,516.30 458.14,516.58 C458.60,516.87 458.68,516.33 458.32,515.39 C457.82,514.10 458.01,513.88 459.08,514.50 C459.86,514.95 460.17,514.95 459.76,514.50 C458.82,513.47 460.92,510.83 462.10,511.56 C462.58,511.86 462.73,511.46 462.43,510.68 C461.73,508.85 465.89,503.98 468.48,503.60 C469.57,503.44 470.75,502.24 471.13,500.91 C471.50,499.58 471.85,499.06 471.90,499.75 C471.96,500.44 472.82,501.00 473.83,501.00 C474.83,501.00 476.74,502.24 478.06,503.75 C479.39,505.26 479.82,505.94 479.04,505.25 C476.87,503.37 475.47,503.75 477.21,505.75 C478.05,506.71 478.51,508.17 478.23,509.00 C477.57,510.96 481.21,506.22 482.84,503.00 C487.47,493.84 491.22,487.19 494.26,482.78 C492.62,485.32 490.64,488.86 487.90,493.99 C483.66,501.96 479.36,509.40 478.34,510.54 C477.33,511.68 475.92,513.88 475.22,515.42 C469.07,528.91 439.79,557.82 421.25,568.70 C418.91,570.07 417.00,571.26 417.00,571.35 C417.00,571.43 418.12,571.50 419.50,571.50 C420.88,571.50 422.00,571.11 422.00,570.64 C422.00,570.17 422.67,570.05 423.50,570.36 C424.33,570.68 425.00,570.46 425.00,569.89 C425.00,569.31 425.56,569.02 426.24,569.25 C426.92,569.47 428.11,569.04 428.87,568.27 C429.63,567.51 430.87,567.12 431.63,567.41 C432.38,567.70 433.00,567.45 433.00,566.86 C433.00,566.27 433.67,566.05 434.50,566.36 C435.33,566.68 436.00,566.57 436.00,566.12 C436.00,565.32 443.61,561.98 453.25,558.53 C455.86,557.60 458.33,556.26 458.75,555.55 C459.63,554.05 465.31,551.00 467.23,551.00 C467.96,551.00 469.33,550.10 470.27,549.00 C471.21,547.90 472.66,547.00 473.49,547.00 C474.32,547.00 475.00,546.58 475.00,546.07 C475.00,545.55 475.91,544.84 477.03,544.49 C478.15,544.14 480.15,542.84 481.48,541.61 C482.81,540.38 485.97,538.30 488.51,536.99 C491.06,535.69 493.57,533.80 494.10,532.81 C494.63,531.81 495.71,531.00 496.50,531.00 C497.29,531.00 498.41,530.10 499.00,529.00 C499.59,527.90 500.60,527.00 501.24,527.00 C501.89,527.00 503.78,525.48 505.46,523.62 C507.13,521.77 511.91,517.14 516.08,513.33 C521.72,508.20 526.65,502.97 532.44,495.90 C526.98,502.58 522.21,507.72 516.98,512.66 C510.74,518.55 507.88,522.39 511.25,520.37 C512.08,519.87 512.03,520.20 511.11,521.33 C510.34,522.28 510.00,523.34 510.36,523.69 C510.71,524.04 511.00,523.78 511.00,523.11 C511.00,522.43 511.45,522.16 512.00,522.50 C512.55,522.84 513.00,522.64 513.00,522.06 C513.00,521.48 513.34,521.05 513.75,521.12 C514.16,521.18 515.40,521.18 516.50,521.10 C518.15,520.99 518.24,520.80 517.01,520.03 C515.83,519.28 515.97,519.12 517.69,519.25 C519.44,519.38 519.67,519.75 518.89,521.21 C518.10,522.69 518.55,523.29 521.47,524.68 C523.41,525.61 525.00,526.91 525.00,527.56 C525.00,529.39 522.25,531.26 520.79,530.43 C520.08,530.02 519.83,530.05 520.24,530.50 C520.65,530.95 520.48,531.92 519.87,532.66 C519.26,533.40 519.12,534.00 519.57,534.00 C521.09,534.00 542.10,512.54 548.95,504.00 C554.47,497.11 559.55,490.10 564.20,482.94 C559.98,489.53 555.45,495.89 550.63,502.00 C542.28,512.59 528.70,527.09 521.36,533.27 C517.59,536.45 511.80,541.33 508.50,544.13 C505.20,546.93 497.22,552.73 490.76,557.01 C458.14,578.66 419.75,592.70 381.50,596.98 C371.06,598.14 341.13,598.11 329.50,596.91 ZM 265.60 464.86 C244.48,462.15 221.17,452.76 204.15,440.10 C196.24,434.21 182.67,420.69 176.96,413.00 C165.86,398.05 157.80,379.54 153.89,360.00 C153.67,358.86 153.45,357.69 153.26,356.49 C153.29,356.66 153.33,356.83 153.36,357.00 C154.35,361.67 155.32,365.65 155.52,365.85 C155.71,366.04 156.90,365.48 158.16,364.60 C159.42,363.72 161.26,363.00 162.25,363.00 C163.25,363.00 164.47,361.89 165.00,360.50 C165.52,359.12 166.63,358.00 167.46,358.00 C169.13,358.00 170.53,362.17 169.64,364.50 C169.32,365.32 169.45,366.00 169.93,366.00 C170.40,366.00 172.29,369.83 174.12,374.50 C175.95,379.17 177.83,383.00 178.31,383.00 C178.68,383.00 178.90,382.79 178.87,382.50 C179.63,384.32 180.44,386.23 181.31,388.25 C182.44,390.86 183.73,393.00 184.18,393.00 C184.63,393.00 185.00,393.47 185.00,394.04 C185.00,395.36 189.09,401.24 190.75,402.30 C191.44,402.74 192.00,403.51 192.00,404.01 C192.00,405.00 192.92,406.10 201.67,415.71 C204.79,419.12 207.66,421.71 208.06,421.46 C208.46,421.22 209.53,422.15 210.43,423.54 C211.34,424.93 212.50,425.81 212.99,425.50 C213.49,425.20 214.39,425.87 215.00,427.00 C215.61,428.13 216.48,428.82 216.95,428.53 C217.41,428.25 218.06,428.71 218.39,429.57 C218.72,430.43 219.44,430.85 219.99,430.50 C220.55,430.16 221.00,430.35 221.00,430.92 C221.00,432.01 226.98,435.55 228.25,435.21 C228.66,435.09 229.00,435.48 229.00,436.06 C229.00,436.64 229.41,436.86 229.91,436.55 C230.42,436.24 230.98,436.43 231.16,436.98 C231.66,438.44 248.38,445.04 252.21,445.29 C254.02,445.40 255.79,445.90 256.14,446.39 C256.50,446.87 258.65,447.27 260.92,447.27 C261.43,447.27 261.93,447.29 262.40,447.32 C262.15,447.50 262.00,447.74 262.00,448.00 C262.00,448.55 262.67,449.00 263.50,449.00 C264.33,449.00 265.00,448.55 265.00,448.00 C265.00,447.90 264.98,447.81 264.94,447.72 C265.25,447.81 265.45,447.92 265.52,448.04 C265.64,448.22 267.00,448.34 269.14,448.41 C268.87,448.56 268.65,448.76 268.50,449.00 C268.13,449.60 269.40,449.99 271.69,449.98 C274.52,449.97 275.11,449.72 274.00,449.00 C273.68,448.79 273.34,448.62 272.99,448.48 C277.90,448.51 284.42,448.39 289.94,448.16 C289.28,448.34 288.72,448.65 288.50,449.00 C288.16,449.55 288.78,450.00 289.88,450.00 C290.98,450.00 292.16,449.55 292.50,449.00 C292.76,448.58 292.46,448.22 291.82,448.07 C293.19,448.01 294.47,447.93 295.61,447.85 C295.57,447.90 295.53,447.95 295.50,448.00 C295.16,448.55 295.56,449.00 296.38,449.00 C297.21,449.00 298.16,448.55 298.50,448.00 C298.59,447.85 298.63,447.71 298.62,447.58 C298.75,447.57 298.88,447.55 299.00,447.54 C301.21,447.26 304.19,446.50 306.03,445.76 C306.01,445.84 306.00,445.92 306.00,446.00 C306.00,446.55 306.45,447.00 307.00,447.00 C307.55,447.00 308.00,446.55 308.00,446.00 C308.00,445.62 307.79,445.29 307.48,445.12 C308.07,444.88 308.71,444.65 309.33,444.44 C309.19,444.72 309.20,445.08 309.36,445.50 C309.68,446.33 309.50,447.00 308.97,447.00 C308.44,447.00 308.00,447.90 308.00,449.00 C308.00,450.17 308.67,451.00 309.61,451.00 C311.30,451.00 317.41,455.69 317.62,457.15 C317.69,457.62 317.81,458.23 317.88,458.50 C317.99,458.98 318.83,459.02 320.19,458.70 C308.83,462.78 297.19,465.67 294.47,464.63 C293.70,464.33 292.80,464.52 292.47,465.04 C291.76,466.20 275.16,466.09 265.60,464.86 ZM 442.30 482.37 C436.17,488.95 429.80,494.96 423.45,500.09 C408.58,512.09 384.18,525.56 366.76,531.39 C328.62,544.15 290.72,544.01 251.50,530.96 C240.41,527.27 238.03,525.91 243.25,526.25 C245.31,526.39 247.00,526.89 247.00,527.36 C247.00,527.83 248.12,527.93 249.50,527.59 C251.02,527.21 252.00,527.39 252.00,528.05 C252.00,528.68 252.84,528.87 254.00,528.50 C255.24,528.11 256.00,528.32 256.00,529.06 C256.00,529.85 257.01,530.05 259.00,529.65 C260.86,529.28 262.00,529.46 262.00,530.14 C262.00,530.86 263.51,531.00 266.50,530.55 C269.54,530.10 271.00,530.24 271.00,530.99 C271.00,531.76 272.88,531.89 277.10,531.41 C281.63,530.90 283.41,531.05 284.01,532.01 C284.66,533.07 287.85,533.08 301.12,532.11 C310.68,531.41 317.71,530.46 318.11,529.81 C318.52,529.16 320.06,528.96 321.90,529.33 C323.84,529.72 325.00,529.54 325.00,528.87 C325.00,528.21 325.99,528.03 327.50,528.41 C329.07,528.80 330.00,528.61 330.00,527.90 C330.00,527.26 330.87,526.99 332.00,527.29 C333.10,527.58 334.00,527.35 334.00,526.79 C334.00,526.23 334.90,526.00 336.00,526.29 C337.10,526.58 338.00,526.37 338.00,525.83 C338.00,525.29 338.79,525.02 339.75,525.23 C342.12,525.74 363.61,518.53 365.58,516.57 C366.44,515.71 368.04,515.00 369.14,515.00 C370.24,515.00 371.82,514.33 372.64,513.50 C373.47,512.67 375.01,512.00 376.07,512.00 C377.13,512.00 378.00,511.55 378.00,511.00 C378.00,510.45 378.79,510.00 379.75,510.00 C380.71,510.00 382.79,508.89 384.37,507.53 C385.87,506.24 387.98,504.89 389.19,504.45 C389.07,504.63 389.00,504.86 389.00,505.12 C389.00,505.77 390.14,505.48 391.75,504.43 C396.74,501.16 399.10,500.21 401.05,500.72 C402.13,501.01 402.68,501.71 402.30,502.32 C401.93,502.93 403.24,502.46 405.23,501.29 C408.67,499.26 408.97,499.24 412.10,500.83 C416.24,502.94 417.02,504.94 413.55,504.55 C411.56,504.34 411.22,504.56 412.04,505.55 C412.83,506.50 412.64,506.95 411.30,507.30 C409.75,507.70 409.73,507.78 411.18,507.88 C414.36,508.10 429.72,495.37 442.30,482.37 ZM 482.42 499.80 C482.06,503.02 481.00,503.91 481.00,500.98 C481.00,498.69 480.96,498.68 479.53,500.56 C478.19,502.33 478.15,502.19 479.03,499.01 C479.56,497.09 480.00,495.38 480.00,495.22 C480.00,495.05 480.60,495.48 481.34,496.17 C482.08,496.86 482.56,498.49 482.42,499.80 ZM 126.68 341.75 C126.18,329.27 126.52,316.10 127.86,307.50 C128.44,303.80 129.09,300.20 129.84,296.67 C127.58,308.19 126.61,320.12 126.60,334.50 C126.60,336.99 126.62,339.41 126.68,341.75 ZM 404.14 498.03 C402.84,499.11 401.32,500.00 400.75,500.00 C400.19,500.00 400.87,499.10 402.27,498.00 C405.56,495.42 407.25,495.45 404.14,498.03 ZM 168.97 346.43 C166.88,328.48 168.31,310.87 173.06,294.35 C169.43,307.21 167.82,320.83 168.30,335.00 C168.44,339.23 168.65,342.96 168.97,346.43 ZM 590.68 427.89 C594.48,416.49 597.56,404.57 599.97,392.00 C600.92,387.05 602.14,378.40 602.99,371.19 C601.11,390.45 596.93,409.54 590.68,427.89 ZM 406.00 499.50 C405.32,500.33 404.31,501.00 403.76,501.00 C403.20,501.00 403.31,500.34 404.00,499.50 C404.68,498.67 405.69,498.00 406.24,498.00 C406.80,498.00 406.69,498.66 406.00,499.50 ZM 178.51 381.63 C178.18,380.90 177.64,379.69 177.11,378.50 C176.38,376.85 175.41,374.75 174.94,373.84 C174.48,372.93 173.19,368.43 172.08,363.83 C172.00,363.48 171.91,363.14 171.83,362.79 C173.34,368.36 175.47,374.25 178.51,381.63 ZM 391.51 503.31 C391.93,503.01 392.28,502.71 392.50,502.43 C393.05,501.73 395.74,499.92 398.47,498.42 C399.84,497.67 401.43,496.66 402.88,495.65 C399.12,498.48 394.09,501.87 391.51,503.31 ZM 231.54 172.20 C248.14,165.89 265.10,163.01 285.12,163.01 C265.98,163.01 248.31,166.02 231.54,172.20 ZM 107.27 327.78 C107.55,323.48 107.93,319.49 108.39,316.05 C109.61,307.01 111.21,298.29 113.21,289.83 C110.41,301.84 108.46,314.38 107.27,327.78 ZM 145.84 251.28 C150.01,242.63 153.63,236.10 157.87,230.02 C153.95,236.01 149.68,243.60 145.84,251.28 ZM 151.49 328.70 C151.72,314.61 153.48,300.49 156.62,290.50 C153.64,299.99 151.83,314.67 151.49,328.70 ZM 330.78 454.48 C336.90,451.54 344.12,447.52 349.91,443.62 C345.16,446.91 340.17,449.88 334.96,452.51 C333.65,453.17 332.25,453.83 330.78,454.48 ZM 355.01 439.91 C359.72,436.18 365.85,430.69 369.93,426.46 C372.22,424.10 374.42,421.66 376.52,419.14 C370.14,426.83 362.94,433.82 355.01,439.91 ZM 177.21 207.80 C177.30,207.70 177.40,207.60 177.50,207.50 C183.41,201.58 188.50,196.92 193.64,192.91 C188.76,196.88 182.82,202.29 177.21,207.80 ZM 463.68 455.74 C470.42,445.80 476.59,435.21 480.81,426.05 C476.30,435.85 470.42,445.96 463.68,455.74 ZM 475.63 482.42 C480.02,474.34 483.58,469.11 487.27,465.53 C483.73,468.99 480.25,474.13 475.63,482.42 ZM 382.16 378.20 C382.42,378.45 379.92,383.72 377.65,388.06 C379.81,383.93 382.14,378.98 382.01,378.49 C381.95,378.29 382.18,377.68 382.57,376.93 C382.22,377.60 382.05,378.10 382.16,378.20 ZM 312.86 443.63 C314.01,443.36 315.26,442.78 315.88,442.19 C315.12,442.91 313.94,443.55 313.25,443.60 C313.13,443.61 313.00,443.62 312.86,443.63 ZM 351.98 472.02 C351.99,471.98 352.00,471.94 352.00,471.91 C352.00,471.55 353.40,470.69 355.14,469.98 C353.63,470.61 352.54,471.35 351.98,472.02 Z" fill="rgb(131,136,136)"/>
<path d="M 442.30 482.37 C429.72,495.37 414.36,508.10 411.18,507.88 C409.73,507.78 409.75,507.70 411.30,507.30 C412.64,506.95 412.83,506.50 412.04,505.55 C411.22,504.56 411.56,504.34 413.55,504.55 C417.02,504.94 416.24,502.94 412.10,500.83 C408.97,499.24 408.67,499.26 405.23,501.29 C403.24,502.46 401.93,502.93 402.30,502.32 C402.68,501.71 402.13,501.01 401.05,500.72 C399.10,500.21 396.74,501.16 391.75,504.43 C390.14,505.48 389.00,505.77 389.00,505.12 C389.00,504.86 389.07,504.63 389.19,504.45 C389.25,504.42 389.31,504.40 389.37,504.38 C390.07,504.16 390.87,503.75 391.51,503.31 C394.09,501.87 399.12,498.48 402.88,495.65 C404.33,494.64 405.64,493.63 406.47,492.85 C408.14,491.29 409.81,490.01 410.19,490.00 C412.34,489.99 442.00,460.57 442.00,458.44 C442.00,458.19 444.41,454.72 447.35,450.74 C453.41,442.54 461.44,428.65 466.69,417.29 C470.17,409.76 473.85,405.01 477.16,403.76 C478.07,403.41 496.29,402.85 517.65,402.51 C549.41,402.01 556.62,401.64 557.26,400.50 C557.69,399.73 558.71,398.43 559.52,397.62 C560.33,396.81 561.00,395.68 561.00,395.12 C561.00,394.56 561.57,393.74 562.27,393.30 C562.97,392.86 564.28,391.38 565.18,390.00 C566.07,388.62 569.29,384.80 572.32,381.50 L 577.83 375.50 L 521.20 375.24 C459.03,374.96 458.43,375.01 450.29,380.91 C444.62,385.01 442.23,388.49 434.45,404.00 C429.54,413.79 425.00,421.87 420.11,429.33 L 420.11 429.33 C417.79,432.77 415.21,436.33 412.08,440.50 C399.36,457.43 380.64,474.64 366.50,482.43 C363.75,483.94 362.28,484.53 363.23,483.74 C364.19,482.95 364.68,482.01 364.32,481.65 C363.96,481.29 364.53,480.99 365.58,480.97 C367.38,480.94 367.39,480.87 365.73,479.91 C364.76,479.34 363.03,479.17 361.89,479.53 C359.81,480.20 356.00,477.29 356.00,475.04 C356.00,474.47 354.89,474.00 353.53,474.00 C351.67,474.00 351.15,473.26 351.75,472.32 C351.86,472.21 351.94,472.11 351.98,472.02 C352.54,471.35 353.63,470.61 355.14,469.98 C355.18,469.97 355.21,469.95 355.25,469.94 C357.04,469.22 359.57,467.59 360.89,466.32 C362.20,465.04 363.89,464.00 364.64,464.00 C365.39,464.00 366.00,463.59 366.00,463.10 C366.00,462.60 367.42,461.30 369.16,460.20 C384.87,450.25 404.38,426.65 415.62,404.00 C418.76,397.67 421.70,392.35 422.17,392.16 C422.63,391.98 422.76,391.42 422.45,390.91 C422.14,390.41 422.43,390.00 423.11,390.00 C423.78,390.00 424.04,389.71 423.69,389.35 C422.92,388.58 427.00,381.00 428.18,381.00 C428.63,381.00 429.00,380.33 429.00,379.50 C429.00,378.67 429.39,378.00 429.87,378.00 C430.34,378.00 431.93,376.20 433.38,374.00 C434.84,371.80 436.51,370.00 437.10,370.00 C438.01,370.00 446.50,364.54 448.00,362.98 C448.27,362.70 450.52,361.83 453.00,361.05 C456.67,359.89 471.07,359.57 530.75,359.28 C575.54,359.06 604.00,359.29 604.00,359.86 C604.00,360.37 603.55,365.45 602.99,371.14 L 602.99 371.19 C602.14,378.40 600.92,387.05 599.97,392.00 C597.56,404.57 594.48,416.49 590.68,427.89 C584.08,447.28 575.16,465.85 564.20,482.94 C559.55,490.10 554.47,497.11 548.95,504.00 C542.10,512.54 521.09,534.00 519.57,534.00 C519.12,534.00 519.26,533.40 519.87,532.66 C520.48,531.92 520.65,530.95 520.24,530.50 C519.83,530.05 520.08,530.02 520.79,530.43 C522.25,531.26 525.00,529.39 525.00,527.56 C525.00,526.91 523.41,525.61 521.47,524.68 C518.55,523.29 518.10,522.69 518.89,521.21 C519.67,519.75 519.44,519.38 517.69,519.25 C515.97,519.12 515.83,519.28 517.01,520.03 C518.24,520.80 518.15,520.99 516.50,521.10 C515.40,521.18 514.16,521.18 513.75,521.12 C513.34,521.05 513.00,521.48 513.00,522.06 C513.00,522.64 512.55,522.84 512.00,522.50 C511.45,522.16 511.00,522.43 511.00,523.11 C511.00,523.78 510.71,524.04 510.36,523.69 C510.00,523.34 510.34,522.28 511.11,521.33 C512.03,520.20 512.08,519.87 511.25,520.37 C507.88,522.39 510.74,518.55 516.98,512.66 C522.21,507.72 526.98,502.58 532.44,495.90 C534.96,492.83 537.64,489.41 540.60,485.49 C541.55,484.24 542.43,483.11 543.22,482.10 C546.21,478.26 547.88,476.11 547.36,474.93 C546.69,473.43 542.46,473.50 532.82,473.67 C530.84,473.71 528.62,473.75 526.15,473.78 L 503.50 474.05 L 499.56 476.78 C497.81,477.99 496.31,479.60 494.26,482.78 C491.22,487.19 487.47,493.84 482.84,503.00 C481.21,506.22 477.57,510.96 478.23,509.00 C478.51,508.17 478.05,506.71 477.21,505.75 C475.47,503.75 476.87,503.37 479.04,505.25 C479.82,505.94 479.39,505.26 478.06,503.75 C476.74,502.24 474.83,501.00 473.83,501.00 C472.82,501.00 471.96,500.44 471.90,499.75 C471.85,499.06 471.50,499.58 471.13,500.91 C470.75,502.24 469.57,503.44 468.48,503.60 C465.89,503.98 461.73,508.85 462.43,510.68 C462.73,511.46 462.58,511.86 462.10,511.56 C460.92,510.83 458.82,513.47 459.76,514.50 C460.17,514.95 459.86,514.95 459.08,514.50 C458.01,513.88 457.82,514.10 458.32,515.39 C458.68,516.33 458.60,516.87 458.14,516.58 C457.67,516.30 454.93,518.98 452.05,522.54 C449.16,526.10 446.32,529.30 445.74,529.66 C444.13,530.65 445.83,528.14 450.55,522.50 C454.31,518.02 458.24,512.47 462.48,505.64 L 462.48 505.64 C466.17,499.83 469.93,493.18 474.28,484.94 C474.74,484.07 475.19,483.23 475.63,482.42 C480.25,474.13 483.73,468.99 487.27,465.53 C489.49,463.38 491.76,461.82 494.29,460.61 C499.23,458.23 500.44,458.09 517.46,458.01 C527.33,457.96 535.58,457.75 535.80,457.54 C536.01,457.32 537.02,453.40 538.04,448.81 C539.61,441.79 544.69,426.08 547.45,419.75 C548.17,418.10 546.32,418.00 516.36,418.01 L 484.50 418.03 L 480.81 426.05 C476.59,435.21 470.42,445.80 463.68,455.74 C457.20,465.12 449.93,474.19 442.30,482.37 ZM 236.76 268.49 C228.14,277.21 220.75,288.10 216.36,298.97 C207.71,320.38 208.81,346.69 219.24,367.75 C223.35,376.05 234.01,389.24 238.66,391.78 C239.94,392.49 241.00,393.49 241.00,394.01 C241.00,394.53 242.12,395.24 243.50,395.59 C244.88,395.93 246.00,396.64 246.00,397.17 C246.00,397.69 246.45,397.84 247.00,397.50 C247.55,397.16 248.00,397.29 248.00,397.78 C248.00,398.85 252.48,401.02 256.00,401.66 C257.38,401.91 258.64,402.52 258.81,403.00 C258.99,403.49 259.78,403.64 260.56,403.34 C261.35,403.03 262.00,403.31 262.00,403.96 C262.00,404.68 262.77,404.89 264.00,404.50 C265.16,404.13 266.00,404.32 266.00,404.95 C266.00,405.60 266.97,405.80 268.39,405.44 C269.71,405.11 271.01,405.21 271.30,405.67 C271.87,406.60 288.95,406.74 290.52,405.83 C291.06,405.52 293.30,404.94 295.50,404.54 C300.43,403.66 313.21,397.84 317.61,394.48 C319.40,393.12 321.10,392.00 321.38,392.00 C322.40,392.00 332.40,380.84 336.40,375.25 C340.79,369.09 342.12,366.18 345.16,356.00 C347.48,348.23 348.47,341.08 348.09,334.12 C348.30,334.80 348.95,333.90 350.98,330.90 C352.62,328.48 353.97,325.92 353.98,325.22 C354.00,323.73 357.92,322.04 359.75,322.74 C360.44,323.00 361.04,324.63 361.10,326.36 C361.20,329.38 361.23,329.40 362.00,327.00 C362.74,324.70 362.81,324.77 362.93,328.00 C363.04,330.95 363.23,331.22 364.11,329.70 C364.31,329.36 364.37,328.69 364.32,327.78 C366.32,342.99 363.68,359.13 356.39,374.11 C353.95,379.14 351.03,384.43 349.92,385.88 C348.80,387.32 346.43,390.43 344.64,392.79 C339.11,400.08 326.07,410.75 317.50,414.99 C305.24,421.07 295.75,423.24 281.50,423.24 C267.68,423.24 258.10,421.15 246.26,415.54 C235.46,410.42 230.59,406.74 218.82,394.77 C209.60,385.40 207.50,382.62 203.55,374.55 C190.87,348.66 190.29,317.60 201.96,289.71 C203.75,285.43 205.78,281.36 206.48,280.67 C207.17,279.97 208.05,278.42 208.44,277.20 C208.82,275.99 209.55,275.00 210.07,275.00 C210.58,275.00 211.00,274.33 211.00,273.50 C211.00,272.67 211.45,272.00 212.00,272.00 C212.55,272.00 213.01,271.44 213.03,270.75 C213.04,270.06 214.39,268.19 216.03,266.58 C217.66,264.98 219.00,263.14 219.00,262.49 C219.00,260.80 229.36,251.21 237.00,245.82 C235.06,247.29 233.01,249.04 231.16,250.84 C228.52,253.40 227.43,254.61 228.74,253.52 C230.54,252.02 230.97,251.93 230.51,253.11 C229.80,254.95 231.46,256.48 235.12,257.35 C236.57,257.69 238.73,258.77 239.93,259.75 L 242.12 261.52 L 233.19 270.26 C228.28,275.07 224.44,279.00 224.66,279.00 C224.89,279.00 224.59,279.89 224.01,280.98 C223.15,282.58 223.24,282.85 224.45,282.38 C225.27,282.07 225.84,281.51 225.72,281.13 C225.36,280.03 230.67,274.22 236.76,268.49 ZM 317.58 328.46 C317.93,329.86 318.62,331.00 319.12,331.00 C319.77,331.00 318.75,327.67 317.63,325.29 C319.73,329.40 320.45,334.16 320.47,341.50 C320.50,350.77 320.26,352.01 317.20,358.47 C309.63,374.45 292.41,384.02 276.20,381.24 C257.73,378.08 242.11,364.02 237.53,346.47 C235.57,338.94 235.56,324.13 237.52,316.46 C239.35,309.23 242.64,302.32 247.03,296.10 C247.01,296.17 247.00,296.24 247.00,296.29 C247.00,297.33 249.83,295.36 251.61,293.08 C252.22,292.30 253.35,291.53 254.11,291.37 C254.88,291.20 256.24,290.92 257.15,290.74 C259.21,290.33 262.23,287.89 261.53,287.20 C261.25,286.92 261.52,286.08 262.13,285.34 C262.96,284.34 262.92,284.00 261.96,284.00 C261.25,284.00 260.96,283.71 261.31,283.36 C261.66,283.00 262.72,283.34 263.67,284.11 C264.80,285.03 265.13,285.08 264.63,284.25 C264.22,283.56 264.33,283.00 264.88,283.00 C265.43,283.00 266.16,283.45 266.50,284.00 C267.54,285.68 270.87,285.11 271.96,283.07 C274.10,279.08 278.46,279.60 283.28,284.43 C284.33,285.48 286.79,285.91 294.13,286.15 C290.97,286.34 288.52,286.86 285.17,287.88 C276.40,290.54 267.93,296.69 261.98,304.28 C261.99,304.19 262.00,304.09 262.00,303.98 C262.00,302.43 270.07,294.00 271.56,294.00 C272.27,294.00 273.45,293.41 274.18,292.69 C274.91,291.96 276.40,290.86 277.50,290.23 C279.15,289.29 278.71,289.18 275.00,289.61 C272.52,289.89 270.05,290.61 269.50,291.21 C268.81,291.96 268.89,292.07 269.75,291.59 C270.44,291.20 271.00,291.17 271.00,291.51 C271.00,291.86 270.44,292.71 269.75,293.41 C269.06,294.10 266.80,296.56 264.72,298.87 C262.64,301.19 260.50,302.81 259.98,302.49 C259.45,302.16 259.29,302.59 259.62,303.45 C260.04,304.55 260.90,305.11 261.46,304.96 C259.12,308.04 257.21,311.35 255.86,314.75 C253.98,319.48 253.57,322.45 253.54,331.50 C253.50,341.33 253.78,343.09 256.11,348.00 C258.96,354.02 263.66,359.44 266.92,360.47 C268.06,360.84 269.00,361.63 269.00,362.23 C269.00,362.84 269.25,363.08 269.56,362.77 C269.87,362.46 272.46,362.84 275.31,363.60 C289.86,367.50 302.98,357.60 303.80,342.12 C304.11,336.12 303.85,335.05 301.06,330.70 C297.91,325.78 291.99,322.07 287.25,322.02 C287.02,322.02 286.80,322.01 286.60,321.99 C286.73,322.00 286.86,322.00 287.00,322.00 C288.10,322.00 289.00,321.55 289.00,321.00 C289.00,320.45 288.44,319.99 287.75,319.98 C286.89,319.97 286.96,319.68 287.95,319.05 C288.75,318.55 289.83,318.40 290.36,318.72 C290.88,319.04 290.99,318.79 290.60,318.15 C289.90,317.02 291.13,316.57 293.89,316.96 C294.84,317.09 295.05,316.58 294.58,315.33 C294.02,313.86 294.13,313.75 295.14,314.75 C296.61,316.21 301.00,316.44 301.00,315.06 C301.00,314.55 301.90,314.19 303.00,314.27 C304.10,314.36 305.00,314.78 305.00,315.21 C305.00,315.65 305.56,315.89 306.25,315.75 C306.94,315.61 307.38,316.10 307.23,316.82 C307.07,317.55 307.43,317.85 308.02,317.49 C309.50,316.57 316.25,323.91 315.57,325.68 C315.27,326.46 315.45,326.84 315.98,326.51 C316.51,326.18 317.23,327.06 317.58,328.46 ZM 107.27 327.78 C108.46,314.38 110.41,301.84 113.21,289.83 C116.92,274.13 122.00,259.30 128.57,244.91 C131.69,238.08 134.54,232.27 134.90,232.00 C135.26,231.73 136.40,229.59 137.43,227.25 C138.46,224.91 139.71,223.00 140.21,223.00 C140.71,223.00 140.84,222.55 140.50,222.00 C140.16,221.45 140.31,221.00 140.83,221.00 C141.36,221.00 142.07,219.88 142.41,218.50 C142.76,217.12 143.48,216.00 144.02,216.00 C144.56,216.00 145.00,215.53 145.00,214.95 C145.00,213.37 152.34,202.73 160.82,192.00 C163.25,188.92 166.51,185.19 170.19,181.20 C160.84,191.46 153.98,200.35 154.57,202.48 C154.96,203.88 154.85,204.10 154.22,203.19 C153.52,202.19 152.87,202.55 151.48,204.69 C150.19,206.67 150.10,207.13 151.17,206.26 C152.00,205.58 152.92,205.25 153.20,205.53 C153.48,205.82 154.28,205.36 154.98,204.52 C156.50,202.70 158.43,202.47 157.37,204.25 C156.87,205.08 157.20,205.03 158.33,204.11 C159.28,203.34 160.28,202.95 160.57,203.24 C160.86,203.53 162.89,203.36 165.08,202.87 C170.30,201.70 174.36,202.67 173.43,204.87 C173.05,205.77 172.66,207.28 172.56,208.23 C172.46,209.18 171.99,210.31 171.53,210.73 C171.06,211.15 171.04,210.88 171.48,210.12 C172.03,209.17 171.84,208.89 170.89,209.22 C170.13,209.49 169.62,210.41 169.78,211.28 C169.93,212.14 169.59,213.13 169.03,213.48 C168.46,213.83 168.00,214.60 168.00,215.20 C168.00,215.79 172.16,212.21 177.25,207.24 C187.15,197.57 189.78,195.21 197.13,190.20 C196.05,190.99 194.88,191.91 193.64,192.91 C188.50,196.92 183.41,201.58 177.50,207.50 C177.40,207.60 177.30,207.70 177.21,207.80 C170.10,214.77 163.52,221.92 160.25,226.52 C159.48,227.61 158.68,228.78 157.87,230.02 C153.63,236.10 150.01,242.63 145.84,251.28 C141.90,259.14 138.40,267.08 136.18,273.50 C133.43,281.45 131.35,288.97 129.84,296.67 L 129.84 296.68 C129.09,300.21 128.44,303.80 127.86,307.50 C126.52,316.10 126.18,329.27 126.68,341.75 C126.96,352.72 127.94,362.08 129.72,370.53 C129.63,370.82 129.46,371.00 129.24,371.00 C128.70,371.00 127.77,368.41 127.18,365.25 C126.59,362.09 125.79,356.80 125.40,353.50 C124.89,349.10 124.50,348.03 123.92,349.50 C123.25,351.23 123.13,351.12 123.07,348.72 L 123.00 345.95 L 119.89 347.56 C116.17,349.48 112.44,348.78 111.71,346.01 C111.04,343.45 109.00,343.38 109.00,345.92 C109.00,348.62 107.96,351.00 106.78,351.00 C106.70,351.00 106.63,350.93 106.56,350.80 C106.55,342.95 106.79,334.93 107.27,327.78 ZM 168.97 346.43 C169.51,352.30 170.37,357.39 171.83,362.79 C171.91,363.14 172.00,363.48 172.08,363.83 C173.19,368.43 174.48,372.93 174.94,373.84 C175.41,374.75 176.38,376.85 177.11,378.50 C177.64,379.69 178.18,380.90 178.51,381.63 C178.63,381.92 178.75,382.21 178.87,382.50 C178.90,382.79 178.68,383.00 178.31,383.00 C177.83,383.00 175.95,379.17 174.12,374.50 C172.29,369.83 170.40,366.00 169.93,366.00 C169.45,366.00 169.32,365.32 169.64,364.50 C170.53,362.17 169.13,358.00 167.46,358.00 C166.63,358.00 165.52,359.12 165.00,360.50 C164.47,361.89 163.25,363.00 162.25,363.00 C161.26,363.00 159.42,363.72 158.16,364.60 C156.90,365.48 155.71,366.04 155.52,365.85 C155.32,365.65 154.35,361.67 153.36,357.00 C153.33,356.83 153.29,356.66 153.26,356.49 C151.90,348.15 151.33,338.43 151.49,328.70 C151.83,314.67 153.64,299.99 156.62,290.50 C159.56,281.10 164.26,269.00 164.97,269.00 C165.35,269.00 165.67,268.39 165.67,267.64 C165.67,266.90 167.33,263.41 169.35,259.89 C174.81,250.43 175.34,249.65 177.25,248.21 C178.21,247.48 179.00,246.33 179.00,245.65 C179.00,244.38 181.12,241.25 184.25,237.88 C185.21,236.85 186.00,235.61 186.00,235.12 C186.00,234.67 189.47,230.99 193.88,226.73 C190.98,229.58 189.01,231.78 189.02,232.36 C189.03,233.09 189.30,233.14 189.77,232.50 C190.17,231.95 191.37,230.82 192.44,230.00 C194.17,228.66 194.31,228.66 193.79,230.08 C193.05,232.04 196.09,232.00 198.47,230.02 C199.86,228.87 200.07,228.88 199.81,230.08 C199.64,230.86 200.06,231.39 200.75,231.25 C202.35,230.93 202.35,232.20 200.75,234.02 C200.06,234.81 200.51,234.60 201.75,233.57 C203.15,232.40 204.00,232.15 204.00,232.90 C204.00,233.57 204.40,233.87 204.90,233.56 C205.39,233.26 206.05,233.70 206.38,234.54 C206.70,235.39 206.34,236.32 205.56,236.62 C204.79,236.91 203.89,237.86 203.56,238.71 C203.23,239.57 204.72,238.75 206.87,236.88 C215.94,229.02 224.18,223.07 232.62,218.46 C239.94,214.41 247.71,211.31 256.39,208.87 C247.83,211.28 240.15,214.34 232.62,218.46 C222.98,223.78 214.14,230.72 205.07,239.90 C189.57,255.59 178.80,274.02 173.06,294.35 C168.31,310.87 166.88,328.48 168.97,346.43 ZM 330.78 454.48 C327.48,455.95 323.85,457.39 320.19,458.70 C318.83,459.02 317.99,458.98 317.88,458.50 C317.81,458.23 317.69,457.62 317.62,457.15 C317.41,455.69 311.30,451.00 309.61,451.00 C308.67,451.00 308.00,450.17 308.00,449.00 C308.00,447.90 308.44,447.00 308.97,447.00 C309.50,447.00 309.68,446.33 309.36,445.50 C309.20,445.08 309.19,444.72 309.33,444.44 C310.40,444.10 311.43,443.84 312.13,443.76 C312.36,443.73 312.61,443.69 312.86,443.63 C313.00,443.62 313.13,443.61 313.25,443.60 C313.94,443.55 315.12,442.91 315.88,442.19 C316.64,441.47 317.87,441.12 318.63,441.41 C319.38,441.70 320.00,441.54 320.00,441.05 C320.00,440.56 322.25,439.41 325.00,438.50 C327.75,437.59 330.00,436.48 330.00,436.04 C330.00,435.60 331.46,434.64 333.25,433.91 C335.04,433.17 337.37,431.77 338.44,430.79 C339.50,429.80 340.71,429.00 341.12,429.00 C341.52,429.00 342.45,428.41 343.18,427.68 C343.91,426.96 346.33,425.04 348.57,423.43 C350.80,421.81 355.08,417.84 358.07,414.60 C361.05,411.36 364.17,407.99 365.00,407.10 C365.83,406.21 368.04,403.08 369.91,400.15 C371.79,397.22 373.82,394.28 374.41,393.63 C374.95,393.04 376.26,390.72 377.65,388.06 L 377.65 388.06 C379.92,383.72 382.42,378.45 382.16,378.20 C382.05,378.10 382.22,377.60 382.57,376.93 C382.81,376.47 383.11,375.96 383.44,375.45 C384.32,374.10 384.83,373.00 384.58,373.00 C384.32,373.00 385.03,370.41 386.15,367.25 C387.27,364.09 388.31,360.60 388.47,359.50 C388.62,358.40 388.84,357.50 388.96,357.50 C389.89,357.50 391.29,343.20 391.32,334.16 C391.34,334.92 391.35,335.68 391.35,336.45 C391.36,343.57 391.55,348.85 391.77,348.19 C391.99,347.53 392.58,347.24 393.09,347.55 C393.59,347.86 394.00,347.44 394.00,346.61 C394.00,345.50 394.70,345.74 396.65,347.55 C398.10,348.90 399.68,350.06 400.15,350.12 C400.62,350.19 401.56,350.33 402.25,350.44 C402.94,350.54 404.06,350.20 404.75,349.69 C405.68,349.00 406.00,349.50 405.98,351.63 C405.97,353.66 405.71,354.10 405.09,353.12 C404.42,352.05 404.04,352.27 403.41,354.12 C402.97,355.43 402.71,356.88 402.84,357.35 C402.96,357.82 403.13,359.72 403.19,361.56 C403.39,366.62 404.57,365.33 406.07,359.54 C400.82,381.48 390.69,402.05 376.52,419.14 C374.42,421.66 372.22,424.10 369.93,426.46 C365.85,430.69 359.72,436.18 355.01,439.91 C353.34,441.18 351.64,442.42 349.91,443.62 C344.12,447.52 336.90,451.54 330.78,454.48 ZM 560.00 456.00 C560.83,455.47 561.19,455.02 560.81,455.02 C560.42,455.01 562.30,450.44 564.97,444.87 C567.64,439.29 571.73,428.83 574.06,421.62 C576.39,414.40 578.76,407.38 579.32,406.00 C579.88,404.62 580.42,403.05 580.52,402.50 C580.61,401.95 580.80,401.27 580.93,401.00 C581.59,399.59 581.57,396.00 580.89,396.00 C579.20,396.00 570.99,408.05 566.25,417.50 C559.64,430.68 553.00,451.94 554.37,455.51 C555.01,457.20 557.77,457.44 560.00,456.00 ZM 435.06 310.99 C435.33,313.89 435.53,316.81 435.67,319.75 C436.02,327.05 436.50,332.83 436.74,332.59 C436.97,332.36 438.03,333.03 439.08,334.08 C440.14,335.14 441.88,336.00 442.95,336.00 C444.02,336.00 445.30,336.72 445.79,337.59 C446.32,338.54 447.64,339.04 449.09,338.84 L 449.44 338.79 L 446.23 339.62 C443.33,340.36 439.65,341.65 438.05,342.47 L 437.42 342.80 C438.68,341.73 438.91,340.00 437.41,340.00 C436.57,340.00 436.16,339.55 436.50,339.00 C436.84,338.45 436.64,338.00 436.06,338.00 C435.69,338.00 435.36,338.55 435.17,339.37 L 435.26 325.74 C435.30,319.57 435.25,314.98 435.06,310.99 ZM 482.42 499.80 C482.56,498.49 482.08,496.86 481.34,496.17 C480.60,495.48 480.00,495.05 480.00,495.22 C480.00,495.38 479.56,497.09 479.03,499.01 C478.15,502.19 478.19,502.33 479.53,500.56 C480.96,498.68 481.00,498.69 481.00,500.98 C481.00,503.91 482.06,503.02 482.42,499.80 ZM 375.71 195.80 C395.73,212.03 411.31,232.88 421.60,256.97 C411.07,232.90 395.20,211.82 375.71,195.80 ZM 327.50 579.00 C327.34,578.73 327.40,578.53 327.63,578.38 C329.08,578.48 330.82,578.57 332.76,578.65 C333.17,578.75 333.58,578.87 334.00,579.00 C336.14,579.68 335.89,579.82 332.31,579.90 C330.00,579.96 327.84,579.55 327.50,579.00 ZM 328.75 482.39 C329.01,482.35 329.30,482.28 329.61,482.20 C330.15,482.18 330.57,482.24 330.76,482.42 C331.04,482.71 330.06,483.41 328.57,483.97 C325.28,485.23 325.00,485.24 325.00,484.11 C325.00,483.74 325.63,483.32 326.48,482.97 C327.11,482.76 327.90,482.55 328.75,482.39 ZM 267.00 287.50 C267.00,288.39 267.91,288.99 269.25,288.98 C270.94,288.97 271.15,288.75 270.10,288.09 C268.98,287.38 269.08,287.11 270.60,286.72 C271.95,286.37 271.70,286.20 269.75,286.12 C267.92,286.04 267.00,286.50 267.00,287.50 ZM 269.14 448.41 C270.24,448.45 271.55,448.47 272.99,448.48 C273.34,448.62 273.68,448.79 274.00,449.00 C275.11,449.72 274.52,449.97 271.69,449.98 C269.40,449.99 268.13,449.60 268.50,449.00 C268.65,448.76 268.87,448.56 269.14,448.41 ZM 289.94 448.16 C290.58,448.13 291.21,448.10 291.82,448.07 C292.46,448.22 292.76,448.58 292.50,449.00 C292.16,449.55 290.98,450.00 289.88,450.00 C288.78,450.00 288.16,449.55 288.50,449.00 C288.72,448.65 289.28,448.34 289.94,448.16 ZM 404.14 498.03 C407.25,495.45 405.56,495.42 402.27,498.00 C400.87,499.10 400.19,500.00 400.75,500.00 C401.32,500.00 402.84,499.11 404.14,498.03 ZM 406.00 499.50 C406.69,498.66 406.80,498.00 406.24,498.00 C405.69,498.00 404.68,498.67 404.00,499.50 C403.31,500.34 403.20,501.00 403.76,501.00 C404.31,501.00 405.32,500.33 406.00,499.50 ZM 251.44 237.05 C259.52,232.94 267.88,230.04 277.50,227.90 C280.77,227.18 285.85,226.74 291.49,226.59 C284.73,226.90 278.35,227.68 273.61,228.90 C265.73,230.94 258.21,233.72 251.44,237.05 ZM 262.40 447.32 C263.46,447.39 264.37,447.54 264.94,447.72 C264.98,447.81 265.00,447.90 265.00,448.00 C265.00,448.55 264.33,449.00 263.50,449.00 C262.67,449.00 262.00,448.55 262.00,448.00 C262.00,447.74 262.15,447.50 262.40,447.32 ZM 297.94 189.94 C317.20,192.24 334.11,198.86 351.87,210.78 C354.51,212.56 357.44,214.81 360.45,217.35 C348.36,207.56 334.54,199.75 320.45,194.97 C313.40,192.59 305.78,190.91 297.94,189.94 ZM 258.98 489.71 C260.12,489.82 261.30,489.93 262.51,490.02 C262.82,490.56 262.20,491.00 261.12,491.00 C260.02,491.00 258.84,490.55 258.50,490.00 C258.42,489.88 258.40,489.76 258.41,489.65 C258.60,489.67 258.79,489.69 258.98,489.71 ZM 295.61 447.85 C296.77,447.77 297.79,447.68 298.62,447.58 C298.63,447.71 298.59,447.85 298.50,448.00 C298.16,448.55 297.21,449.00 296.38,449.00 C295.56,449.00 295.16,448.55 295.50,448.00 C295.53,447.95 295.57,447.90 295.61,447.85 ZM 389.45 316.09 C385.73,298.34 376.64,282.05 363.59,269.36 C368.60,274.20 373.06,279.58 376.83,285.40 C383.14,295.16 387.27,305.10 389.45,316.09 ZM 410.18 325.84 C410.14,310.77 407.82,294.96 403.45,281.28 C408.12,295.88 410.28,310.93 410.18,325.84 ZM 219.47 206.38 C227.03,201.64 234.75,197.92 242.76,195.16 C235.78,197.65 226.92,201.96 219.47,206.38 ZM 306.63 445.50 C306.90,445.37 307.18,445.25 307.48,445.12 C307.79,445.29 308.00,445.62 308.00,446.00 C308.00,446.55 307.55,447.00 307.00,447.00 C306.45,447.00 306.00,446.55 306.00,446.00 C306.00,445.92 306.01,445.84 306.03,445.76 C306.25,445.67 306.45,445.58 306.63,445.50 ZM 252.50 293.00 C252.16,293.55 252.36,294.00 252.94,294.00 C253.52,294.00 254.00,293.55 254.00,293.00 C254.00,292.45 253.80,292.00 253.56,292.00 C253.32,292.00 252.84,292.45 252.50,293.00 ZM 311.05 317.12 C309.73,316.10 308.13,315.08 306.60,314.33 C303.30,312.71 300.17,312.01 297.28,312.21 C301.87,311.76 306.82,313.42 311.05,317.12 ZM 202.95 186.32 C212.25,180.38 222.10,175.55 232.44,171.86 C232.14,171.98 231.84,172.09 231.54,172.20 C221.74,175.81 212.24,180.51 202.95,186.32 ZM 317.79 166.72 C326.65,168.81 335.23,171.76 343.45,175.57 C338.27,173.21 332.94,171.17 327.50,169.47 C324.09,168.41 320.89,167.50 317.79,166.72 ZM 300.00 243.69 C311.07,243.74 315.96,244.18 321.65,245.68 C315.51,244.22 309.11,243.73 300.00,243.69 ZM 319.14 289.71 C315.30,287.93 312.96,287.12 309.16,286.67 C313.29,287.05 315.18,287.81 319.14,289.66 C322.27,291.13 325.72,293.48 329.02,296.26 C325.72,293.49 322.27,291.15 319.14,289.71 ZM 316.48 323.32 C316.38,323.20 316.28,323.10 316.19,323.04 C315.79,322.75 314.71,321.32 313.76,319.83 C314.81,321.00 315.71,322.14 316.48,323.32 ZM 252.83 288.95 C255.34,286.26 258.08,283.76 260.99,281.50 C258.29,283.70 255.33,286.43 252.83,288.95 ZM 436.10 343.48 L 435.14 343.98 L 435.15 342.67 C435.31,343.32 435.61,343.57 436.10,343.48 ZM 269.18 276.06 C272.49,274.19 275.95,272.62 279.54,271.39 C276.58,272.41 272.59,274.22 269.18,276.06 ZM 348.00 332.54 C348.00,332.61 348.00,332.67 348.00,332.73 C347.86,331.02 347.65,329.33 347.35,327.65 C347.76,329.62 348.00,331.34 348.00,332.54 ZM 355.57 301.52 C354.47,299.68 353.28,297.88 352.00,296.12 C353.25,297.79 354.36,299.43 355.28,301.01 C355.38,301.18 355.47,301.35 355.57,301.52 ZM 332.94 277.86 C331.67,277.05 330.39,276.31 329.10,275.64 C327.71,274.91 326.40,274.25 325.13,273.66 C326.52,274.30 327.96,275.02 329.50,275.82 C330.60,276.39 331.76,277.08 332.94,277.86 ZM 249.71 257.72 C254.47,254.61 258.94,252.11 263.42,250.13 C258.93,252.11 254.46,254.62 249.71,257.74 C249.21,258.07 248.71,258.41 248.21,258.76 C248.74,258.38 249.24,258.03 249.71,257.72 ZM 339.38 252.35 C338.68,252.01 337.97,251.68 337.26,251.35 C335.89,250.72 334.57,250.14 333.30,249.61 C335.36,250.45 337.39,251.37 339.38,252.35 ZM 285.26 320.34 C285.60,319.45 286.61,318.19 288.31,316.49 C286.63,318.17 285.62,319.44 285.26,320.34 ZM 257.31 191.25 C259.62,190.80 261.96,190.42 264.33,190.10 C261.96,190.42 259.62,190.80 257.31,191.25 ZM 451.50 338.26 L 451.43 320.50 L 451.50 338.26 L 451.50 338.26 ZM 362.26 317.63 C362.00,316.71 361.72,315.77 361.43,314.85 C361.73,315.77 362.00,316.70 362.26,317.63 Z" fill="rgb(172,176,175)"/>
<path d="M 403.19 361.56 C403.13,359.72 402.96,357.82 402.84,357.35 C402.71,356.88 402.97,355.43 403.41,354.12 C404.04,352.27 404.42,352.05 405.09,353.12 C405.71,354.10 405.97,353.66 405.98,351.63 C406.00,349.50 405.68,349.00 404.75,349.69 C404.06,350.20 402.94,350.54 402.25,350.44 C401.56,350.33 400.62,350.19 400.15,350.12 C399.68,350.06 398.10,348.90 396.65,347.55 C394.70,345.74 394.00,345.50 394.00,346.61 C394.00,347.44 393.59,347.86 393.09,347.55 C392.58,347.24 391.99,347.53 391.77,348.19 C391.55,348.85 391.36,343.57 391.35,336.45 C391.32,316.69 386.80,300.82 376.83,285.40 C364.43,266.23 344.57,251.88 322.00,245.78 C316.16,244.20 311.30,243.74 300.00,243.69 C278.64,243.61 265.84,247.18 249.71,257.72 C241.80,262.89 225.09,279.20 225.72,281.13 C225.84,281.51 225.27,282.07 224.45,282.38 C223.24,282.85 223.15,282.58 224.01,280.98 C224.59,279.89 224.89,279.00 224.66,279.00 C224.44,279.00 228.28,275.07 233.19,270.26 L 242.12 261.52 L 239.93 259.75 C238.73,258.77 236.57,257.69 235.12,257.35 C231.46,256.48 229.80,254.95 230.51,253.11 C230.97,251.93 230.54,252.02 228.74,253.52 C227.43,254.61 228.52,253.40 231.16,250.84 C240.90,241.36 256.41,233.35 273.61,228.90 C285.39,225.86 307.24,225.58 319.95,228.32 C335.33,231.64 349.90,237.79 362.33,246.22 C365.53,248.40 368.38,249.95 368.65,249.68 C368.93,249.40 364.96,244.93 359.83,239.73 C344.44,224.15 327.71,214.24 307.57,208.75 C300.67,206.88 296.96,206.56 282.00,206.59 C267.28,206.62 263.28,206.96 256.82,208.75 C238.46,213.85 224.18,221.89 206.87,236.88 C204.72,238.75 203.23,239.57 203.56,238.71 C203.89,237.86 204.79,236.91 205.56,236.62 C206.34,236.32 206.70,235.39 206.38,234.54 C206.05,233.70 205.39,233.26 204.90,233.56 C204.40,233.87 204.00,233.57 204.00,232.90 C204.00,232.15 203.15,232.40 201.75,233.57 C200.51,234.60 200.06,234.81 200.75,234.02 C202.35,232.20 202.35,230.93 200.75,231.25 C200.06,231.39 199.64,230.86 199.81,230.08 C200.07,228.88 199.86,228.87 198.47,230.02 C196.09,232.00 193.05,232.04 193.79,230.08 C194.31,228.66 194.17,228.66 192.44,230.00 C191.37,230.82 190.17,231.95 189.77,232.50 C189.30,233.14 189.03,233.09 189.02,232.36 C188.99,230.84 202.35,218.40 210.73,212.12 C219.16,205.80 234.16,197.99 244.28,194.63 C267.50,186.94 297.13,187.07 320.45,194.97 C344.44,203.10 367.65,220.04 382.84,240.50 C389.08,248.90 400.00,270.50 403.45,281.28 C409.96,301.62 411.92,326.68 408.59,347.00 C406.09,362.24 403.48,369.27 403.19,361.56 ZM 435.00 340.97 C435.00,339.34 435.48,338.00 436.06,338.00 C436.64,338.00 436.84,338.45 436.50,339.00 C436.16,339.55 436.57,340.00 437.41,340.00 C439.25,340.00 438.49,342.60 436.42,343.39 C435.39,343.79 435.00,343.12 435.00,340.97 ZM 491.47 316.79 C491.43,292.58 490.47,283.73 485.92,265.51 C479.13,238.40 467.95,217.28 451.02,199.60 C427.83,175.38 402.80,164.33 367.00,162.51 L 354.50 161.87 L 360.50 165.21 C382.13,177.25 403.42,196.43 418.54,217.50 C427.13,229.47 439.00,253.58 443.46,268.12 C449.50,287.79 451.36,299.97 451.43,320.50 L 451.50 338.50 L 449.09 338.84 C447.64,339.04 446.32,338.54 445.79,337.59 C445.30,336.72 444.02,336.00 442.95,336.00 C441.88,336.00 440.14,335.14 439.08,334.08 C438.03,333.03 436.97,332.36 436.74,332.59 C436.50,332.83 436.02,327.05 435.67,319.75 C432.67,257.01 400.48,204.77 348.33,177.96 C329.05,168.05 307.70,163.00 285.12,163.01 C253.75,163.02 224.99,171.52 200.28,188.07 C190.35,194.72 188.45,196.30 177.25,207.24 C172.16,212.21 168.00,215.79 168.00,215.20 C168.00,214.60 168.46,213.83 169.03,213.48 C169.59,213.13 169.93,212.14 169.78,211.28 C169.62,210.41 170.13,209.49 170.89,209.22 C171.84,208.89 172.03,209.17 171.48,210.12 C171.04,210.88 171.06,211.15 171.53,210.73 C171.99,210.31 172.46,209.18 172.56,208.23 C172.66,207.28 173.05,205.77 173.43,204.87 C174.36,202.67 170.30,201.70 165.08,202.87 C162.89,203.36 160.86,203.53 160.57,203.24 C160.28,202.95 159.28,203.34 158.33,204.11 C157.20,205.03 156.87,205.08 157.37,204.25 C158.43,202.47 156.50,202.70 154.98,204.52 C154.28,205.36 153.48,205.82 153.20,205.53 C152.92,205.25 152.00,205.58 151.17,206.26 C150.10,207.13 150.19,206.67 151.48,204.69 C152.87,202.55 153.52,202.19 154.22,203.19 C154.85,204.10 154.96,203.88 154.57,202.48 C153.34,198.04 184.44,164.29 203.00,149.92 C258.57,106.92 323.80,90.10 390.70,101.53 C417.04,106.03 447.12,118.11 470.50,133.57 C506.22,157.19 535.37,192.78 550.00,230.64 C554.02,241.04 559.47,261.08 561.64,273.50 C563.55,284.40 564.25,326.09 562.68,335.29 L 561.87 340.08 L 553.68 339.79 C545.63,339.50 545.50,339.46 545.74,337.00 C545.87,335.62 546.43,328.15 546.99,320.39 C549.76,281.73 539.71,239.63 520.04,207.50 C494.56,165.88 449.84,133.44 401.37,121.45 C382.48,116.77 371.96,115.56 350.50,115.58 C316.67,115.61 288.01,122.21 257.50,137.01 C245.56,142.79 230.50,151.83 231.36,152.69 C231.61,152.94 236.92,152.01 243.15,150.63 C262.57,146.32 269.55,145.83 317.00,145.48 C363.24,145.14 379.16,145.79 392.86,148.59 C445.83,159.42 486.54,201.55 502.01,261.55 C507.19,281.64 509.93,311.69 508.29,330.50 L 507.50 339.50 L 499.50 339.79 L 491.50 340.07 L 491.47 316.79 ZM 348.00 332.54 C348.00,328.39 345.14,318.19 342.24,312.00 C338.62,304.25 327.66,293.66 319.14,289.66 C312.85,286.71 311.77,286.53 298.68,286.27 C287.73,286.05 284.52,285.67 283.28,284.43 C278.46,279.60 274.10,279.08 271.96,283.07 C270.87,285.11 267.54,285.68 266.50,284.00 C266.16,283.45 265.43,283.00 264.88,283.00 C264.33,283.00 264.22,283.56 264.63,284.25 C265.13,285.08 264.80,285.03 263.67,284.11 C262.72,283.34 261.66,283.00 261.31,283.36 C260.96,283.71 261.25,284.00 261.96,284.00 C262.92,284.00 262.96,284.34 262.13,285.34 C261.52,286.08 261.25,286.92 261.53,287.20 C262.23,287.89 259.21,290.33 257.15,290.74 C256.24,290.92 254.88,291.20 254.11,291.37 C253.35,291.53 252.22,292.30 251.61,293.08 C249.83,295.36 247.00,297.33 247.00,296.29 C247.00,294.21 258.46,282.85 264.82,278.62 C268.54,276.15 275.16,272.90 279.54,271.39 C286.36,269.04 289.14,268.65 299.00,268.61 C312.06,268.56 318.42,270.04 329.10,275.64 C340.50,281.60 351.55,293.15 357.88,305.72 C361.49,312.88 365.32,327.62 364.11,329.70 C363.23,331.22 363.04,330.95 362.93,328.00 C362.81,324.77 362.74,324.70 362.00,327.00 C361.23,329.40 361.20,329.38 361.10,326.36 C361.04,324.63 360.44,323.00 359.75,322.74 C357.92,322.04 354.00,323.73 353.98,325.22 C353.97,325.92 352.62,328.48 350.98,330.90 C348.13,335.12 348.00,335.19 348.00,332.54 ZM 317.58 328.46 C317.23,327.06 316.51,326.18 315.98,326.51 C315.45,326.84 315.27,326.46 315.57,325.68 C316.25,323.91 309.50,316.57 308.02,317.49 C307.43,317.85 307.07,317.55 307.23,316.82 C307.38,316.10 306.94,315.61 306.25,315.75 C305.56,315.89 305.00,315.65 305.00,315.21 C305.00,314.78 304.10,314.36 303.00,314.27 C301.90,314.19 301.00,314.55 301.00,315.06 C301.00,316.44 296.61,316.21 295.14,314.75 C294.13,313.75 294.02,313.86 294.58,315.33 C295.05,316.58 294.84,317.09 293.89,316.96 C291.13,316.57 289.90,317.02 290.60,318.15 C290.99,318.79 290.88,319.04 290.36,318.72 C289.83,318.40 288.75,318.55 287.95,319.05 C286.96,319.68 286.89,319.97 287.75,319.98 C288.44,319.99 289.00,320.45 289.00,321.00 C289.00,321.55 288.10,322.00 287.00,322.00 C284.12,322.00 284.53,320.27 288.31,316.49 C293.20,311.60 299.51,310.85 306.60,314.33 C309.52,315.76 312.71,318.19 313.68,319.72 C314.66,321.25 315.78,322.74 316.19,323.04 C317.48,323.97 320.06,331.00 319.12,331.00 C318.62,331.00 317.93,329.86 317.58,328.46 ZM 259.62 303.45 C259.29,302.59 259.45,302.16 259.98,302.49 C260.50,302.81 262.64,301.19 264.72,298.87 C266.80,296.56 269.06,294.10 269.75,293.41 C270.44,292.71 271.00,291.86 271.00,291.51 C271.00,291.17 270.44,291.20 269.75,291.59 C268.89,292.07 268.81,291.96 269.50,291.21 C270.05,290.61 272.52,289.89 275.00,289.61 C278.71,289.18 279.15,289.29 277.50,290.23 C276.40,290.86 274.91,291.96 274.18,292.69 C273.45,293.41 272.27,294.00 271.56,294.00 C270.07,294.00 262.00,302.43 262.00,303.98 C262.00,305.56 260.28,305.18 259.62,303.45 ZM 252.50 293.00 C252.84,292.45 253.32,292.00 253.56,292.00 C253.80,292.00 254.00,292.45 254.00,293.00 C254.00,293.55 253.52,294.00 252.94,294.00 C252.36,294.00 252.16,293.55 252.50,293.00 ZM 267.00 287.50 C267.00,286.50 267.92,286.04 269.75,286.12 C271.70,286.20 271.95,286.37 270.60,286.72 C269.08,287.11 268.98,287.38 270.10,288.09 C271.15,288.75 270.94,288.97 269.25,288.98 C267.91,288.99 267.00,288.39 267.00,287.50 Z" fill="rgb(210,214,212)"/>
</g>
</svg>